<?xml version="1.0" encoding="utf-8" standalone="no"?>
<!DOCTYPE svg PUBLIC "-//W3C//DTD SVG 1.1//EN"
  "http://www.w3.org/Graphics/SVG/1.1/DTD/svg11.dtd">
<!-- Created with matplotlib (https://matplotlib.org/) -->
<svg height="216pt" version="1.1" viewBox="0 0 360 216" width="360pt" xmlns="http://www.w3.org/2000/svg" xmlns:xlink="http://www.w3.org/1999/xlink">
 <metadata>
  <rdf:RDF xmlns:cc="http://creativecommons.org/ns#" xmlns:dc="http://purl.org/dc/elements/1.1/" xmlns:rdf="http://www.w3.org/1999/02/22-rdf-syntax-ns#">
   <cc:Work>
    <dc:type rdf:resource="http://purl.org/dc/dcmitype/StillImage"/>
    <dc:date>2021-05-31T12:47:36.775581</dc:date>
    <dc:format>image/svg+xml</dc:format>
    <dc:creator>
     <cc:Agent>
      <dc:title>Matplotlib v3.3.4, https://matplotlib.org/</dc:title>
     </cc:Agent>
    </dc:creator>
   </cc:Work>
  </rdf:RDF>
 </metadata>
 <defs>
  <style type="text/css">*{stroke-linecap:butt;stroke-linejoin:round;}</style>
 </defs>
 <g id="figure_1">
  <g id="axes_1">
   <g id="patch_1">
    <path d="M 43.548 176.052 
L 296.902 176.052 
L 296.902 25.06425 
L 43.548 25.06425 
z
" style="fill:#eaeaf2;"/>
   </g>
   <g id="matplotlib.axis_1">
    <g id="xtick_1">
     <g id="line2d_1">
      <path clip-path="url(#p85b6c7e0cf)" d="M 55.064091 176.052 
L 55.064091 25.06425 
" style="fill:none;stroke:#ffffff;stroke-linecap:round;stroke-width:0.8;"/>
     </g>
     <g id="text_1">
      <!-- 0 -->
      <g style="fill:#262626;" transform="translate(52.172403 191.796125)scale(0.104 -0.104)">
       <defs>
        <path d="M 4.15625 35.296875 
Q 4.15625 48 6.765625 55.734375 
Q 9.375 63.484375 14.515625 67.671875 
Q 19.671875 71.875 27.484375 71.875 
Q 33.25 71.875 37.59375 69.546875 
Q 41.9375 67.234375 44.765625 62.859375 
Q 47.609375 58.5 49.21875 52.21875 
Q 50.828125 45.953125 50.828125 35.296875 
Q 50.828125 22.703125 48.234375 14.96875 
Q 45.65625 7.234375 40.5 3 
Q 35.359375 -1.21875 27.484375 -1.21875 
Q 17.140625 -1.21875 11.234375 6.203125 
Q 4.15625 15.140625 4.15625 35.296875 
z
M 13.1875 35.296875 
Q 13.1875 17.671875 17.3125 11.828125 
Q 21.4375 6 27.484375 6 
Q 33.546875 6 37.671875 11.859375 
Q 41.796875 17.71875 41.796875 35.296875 
Q 41.796875 52.984375 37.671875 58.78125 
Q 33.546875 64.59375 27.390625 64.59375 
Q 21.34375 64.59375 17.71875 59.46875 
Q 13.1875 52.9375 13.1875 35.296875 
z
" id="ArialMT-48"/>
       </defs>
       <use xlink:href="#ArialMT-48"/>
      </g>
     </g>
    </g>
    <g id="xtick_2">
     <g id="line2d_2">
      <path clip-path="url(#p85b6c7e0cf)" d="M 101.128455 176.052 
L 101.128455 25.06425 
" style="fill:none;stroke:#ffffff;stroke-linecap:round;stroke-width:0.8;"/>
     </g>
     <g id="text_2">
      <!-- 20 -->
      <g style="fill:#262626;" transform="translate(95.34508 191.796125)scale(0.104 -0.104)">
       <defs>
        <path d="M 50.34375 8.453125 
L 50.34375 0 
L 3.03125 0 
Q 2.9375 3.171875 4.046875 6.109375 
Q 5.859375 10.9375 9.828125 15.625 
Q 13.8125 20.3125 21.34375 26.46875 
Q 33.015625 36.03125 37.109375 41.625 
Q 41.21875 47.21875 41.21875 52.203125 
Q 41.21875 57.421875 37.46875 61 
Q 33.734375 64.59375 27.734375 64.59375 
Q 21.390625 64.59375 17.578125 60.78125 
Q 13.765625 56.984375 13.71875 50.25 
L 4.6875 51.171875 
Q 5.609375 61.28125 11.65625 66.578125 
Q 17.71875 71.875 27.9375 71.875 
Q 38.234375 71.875 44.234375 66.15625 
Q 50.25 60.453125 50.25 52 
Q 50.25 47.703125 48.484375 43.546875 
Q 46.734375 39.40625 42.65625 34.8125 
Q 38.578125 30.21875 29.109375 22.21875 
Q 21.1875 15.578125 18.9375 13.203125 
Q 16.703125 10.84375 15.234375 8.453125 
z
" id="ArialMT-50"/>
       </defs>
       <use xlink:href="#ArialMT-50"/>
       <use x="55.615234" xlink:href="#ArialMT-48"/>
      </g>
     </g>
    </g>
    <g id="xtick_3">
     <g id="line2d_3">
      <path clip-path="url(#p85b6c7e0cf)" d="M 147.192818 176.052 
L 147.192818 25.06425 
" style="fill:none;stroke:#ffffff;stroke-linecap:round;stroke-width:0.8;"/>
     </g>
     <g id="text_3">
      <!-- 40 -->
      <g style="fill:#262626;" transform="translate(141.409443 191.796125)scale(0.104 -0.104)">
       <defs>
        <path d="M 32.328125 0 
L 32.328125 17.140625 
L 1.265625 17.140625 
L 1.265625 25.203125 
L 33.9375 71.578125 
L 41.109375 71.578125 
L 41.109375 25.203125 
L 50.78125 25.203125 
L 50.78125 17.140625 
L 41.109375 17.140625 
L 41.109375 0 
z
M 32.328125 25.203125 
L 32.328125 57.46875 
L 9.90625 25.203125 
z
" id="ArialMT-52"/>
       </defs>
       <use xlink:href="#ArialMT-52"/>
       <use x="55.615234" xlink:href="#ArialMT-48"/>
      </g>
     </g>
    </g>
    <g id="xtick_4">
     <g id="line2d_4">
      <path clip-path="url(#p85b6c7e0cf)" d="M 193.257182 176.052 
L 193.257182 25.06425 
" style="fill:none;stroke:#ffffff;stroke-linecap:round;stroke-width:0.8;"/>
     </g>
     <g id="text_4">
      <!-- 60 -->
      <g style="fill:#262626;" transform="translate(187.473807 191.796125)scale(0.104 -0.104)">
       <defs>
        <path d="M 49.75 54.046875 
L 41.015625 53.375 
Q 39.84375 58.546875 37.703125 60.890625 
Q 34.125 64.65625 28.90625 64.65625 
Q 24.703125 64.65625 21.53125 62.3125 
Q 17.390625 59.28125 14.984375 53.46875 
Q 12.59375 47.65625 12.5 36.921875 
Q 15.671875 41.75 20.265625 44.09375 
Q 24.859375 46.4375 29.890625 46.4375 
Q 38.671875 46.4375 44.84375 39.96875 
Q 51.03125 33.5 51.03125 23.25 
Q 51.03125 16.5 48.125 10.71875 
Q 45.21875 4.9375 40.140625 1.859375 
Q 35.0625 -1.21875 28.609375 -1.21875 
Q 17.625 -1.21875 10.6875 6.859375 
Q 3.765625 14.9375 3.765625 33.5 
Q 3.765625 54.25 11.421875 63.671875 
Q 18.109375 71.875 29.4375 71.875 
Q 37.890625 71.875 43.28125 67.140625 
Q 48.6875 62.40625 49.75 54.046875 
z
M 13.875 23.1875 
Q 13.875 18.65625 15.796875 14.5 
Q 17.71875 10.359375 21.1875 8.171875 
Q 24.65625 6 28.46875 6 
Q 34.03125 6 38.03125 10.484375 
Q 42.046875 14.984375 42.046875 22.703125 
Q 42.046875 30.125 38.078125 34.390625 
Q 34.125 38.671875 28.125 38.671875 
Q 22.171875 38.671875 18.015625 34.390625 
Q 13.875 30.125 13.875 23.1875 
z
" id="ArialMT-54"/>
       </defs>
       <use xlink:href="#ArialMT-54"/>
       <use x="55.615234" xlink:href="#ArialMT-48"/>
      </g>
     </g>
    </g>
    <g id="xtick_5">
     <g id="line2d_5">
      <path clip-path="url(#p85b6c7e0cf)" d="M 239.321545 176.052 
L 239.321545 25.06425 
" style="fill:none;stroke:#ffffff;stroke-linecap:round;stroke-width:0.8;"/>
     </g>
     <g id="text_5">
      <!-- 80 -->
      <g style="fill:#262626;" transform="translate(233.53817 191.796125)scale(0.104 -0.104)">
       <defs>
        <path d="M 17.671875 38.8125 
Q 12.203125 40.828125 9.5625 44.53125 
Q 6.9375 48.25 6.9375 53.421875 
Q 6.9375 61.234375 12.546875 66.546875 
Q 18.171875 71.875 27.484375 71.875 
Q 36.859375 71.875 42.578125 66.421875 
Q 48.296875 60.984375 48.296875 53.171875 
Q 48.296875 48.1875 45.671875 44.5 
Q 43.0625 40.828125 37.75 38.8125 
Q 44.34375 36.671875 47.78125 31.875 
Q 51.21875 27.09375 51.21875 20.453125 
Q 51.21875 11.28125 44.71875 5.03125 
Q 38.234375 -1.21875 27.640625 -1.21875 
Q 17.046875 -1.21875 10.546875 5.046875 
Q 4.046875 11.328125 4.046875 20.703125 
Q 4.046875 27.6875 7.59375 32.390625 
Q 11.140625 37.109375 17.671875 38.8125 
z
M 15.921875 53.71875 
Q 15.921875 48.640625 19.1875 45.40625 
Q 22.46875 42.1875 27.6875 42.1875 
Q 32.765625 42.1875 36.015625 45.375 
Q 39.265625 48.578125 39.265625 53.21875 
Q 39.265625 58.0625 35.90625 61.359375 
Q 32.5625 64.65625 27.59375 64.65625 
Q 22.5625 64.65625 19.234375 61.421875 
Q 15.921875 58.203125 15.921875 53.71875 
z
M 13.09375 20.65625 
Q 13.09375 16.890625 14.875 13.375 
Q 16.65625 9.859375 20.171875 7.921875 
Q 23.6875 6 27.734375 6 
Q 34.03125 6 38.125 10.046875 
Q 42.234375 14.109375 42.234375 20.359375 
Q 42.234375 26.703125 38.015625 30.859375 
Q 33.796875 35.015625 27.4375 35.015625 
Q 21.234375 35.015625 17.15625 30.90625 
Q 13.09375 26.8125 13.09375 20.65625 
z
" id="ArialMT-56"/>
       </defs>
       <use xlink:href="#ArialMT-56"/>
       <use x="55.615234" xlink:href="#ArialMT-48"/>
      </g>
     </g>
    </g>
    <g id="xtick_6">
     <g id="line2d_6">
      <path clip-path="url(#p85b6c7e0cf)" d="M 285.385909 176.052 
L 285.385909 25.06425 
" style="fill:none;stroke:#ffffff;stroke-linecap:round;stroke-width:0.8;"/>
     </g>
     <g id="text_6">
      <!-- 100 -->
      <g style="fill:#262626;" transform="translate(276.710847 191.796125)scale(0.104 -0.104)">
       <defs>
        <path d="M 37.25 0 
L 28.46875 0 
L 28.46875 56 
Q 25.296875 52.984375 20.140625 49.953125 
Q 14.984375 46.921875 10.890625 45.40625 
L 10.890625 53.90625 
Q 18.265625 57.375 23.78125 62.296875 
Q 29.296875 67.234375 31.59375 71.875 
L 37.25 71.875 
z
" id="ArialMT-49"/>
       </defs>
       <use xlink:href="#ArialMT-49"/>
       <use x="55.615234" xlink:href="#ArialMT-48"/>
       <use x="111.230469" xlink:href="#ArialMT-48"/>
      </g>
     </g>
    </g>
    <g id="text_7">
     <!-- O$_2$ concentration [%air] -->
     <g style="fill:#262626;" transform="translate(109.502 200.963625)scale(0.117 -0.117)">
      <defs>
       <path d="M 4.828125 34.859375 
Q 4.828125 52.6875 14.390625 62.765625 
Q 23.96875 72.859375 39.109375 72.859375 
Q 49.03125 72.859375 56.984375 68.109375 
Q 64.9375 63.375 69.109375 54.90625 
Q 73.296875 46.4375 73.296875 35.6875 
Q 73.296875 24.8125 68.890625 16.21875 
Q 64.5 7.625 56.4375 3.203125 
Q 48.390625 -1.21875 39.0625 -1.21875 
Q 28.953125 -1.21875 20.984375 3.65625 
Q 13.03125 8.546875 8.921875 16.984375 
Q 4.828125 25.4375 4.828125 34.859375 
z
M 14.59375 34.71875 
Q 14.59375 21.78125 21.546875 14.328125 
Q 28.515625 6.890625 39.015625 6.890625 
Q 49.703125 6.890625 56.609375 14.40625 
Q 63.53125 21.921875 63.53125 35.75 
Q 63.53125 44.484375 60.578125 51 
Q 57.625 57.515625 51.921875 61.109375 
Q 46.234375 64.703125 39.15625 64.703125 
Q 29.109375 64.703125 21.84375 57.78125 
Q 14.59375 50.875 14.59375 34.71875 
z
" id="ArialMT-79"/>
       <path d="M 19.1875 8.296875 
L 53.609375 8.296875 
L 53.609375 0 
L 7.328125 0 
L 7.328125 8.296875 
Q 12.9375 14.109375 22.625 23.890625 
Q 32.328125 33.6875 34.8125 36.53125 
Q 39.546875 41.84375 41.421875 45.53125 
Q 43.3125 49.21875 43.3125 52.78125 
Q 43.3125 58.59375 39.234375 62.25 
Q 35.15625 65.921875 28.609375 65.921875 
Q 23.96875 65.921875 18.8125 64.3125 
Q 13.671875 62.703125 7.8125 59.421875 
L 7.8125 69.390625 
Q 13.765625 71.78125 18.9375 73 
Q 24.125 74.21875 28.421875 74.21875 
Q 39.75 74.21875 46.484375 68.546875 
Q 53.21875 62.890625 53.21875 53.421875 
Q 53.21875 48.921875 51.53125 44.890625 
Q 49.859375 40.875 45.40625 35.40625 
Q 44.1875 33.984375 37.640625 27.21875 
Q 31.109375 20.453125 19.1875 8.296875 
z
" id="DejaVuSans-50"/>
       <path id="ArialMT-32"/>
       <path d="M 40.4375 19 
L 49.078125 17.875 
Q 47.65625 8.9375 41.8125 3.875 
Q 35.984375 -1.171875 27.484375 -1.171875 
Q 16.84375 -1.171875 10.375 5.78125 
Q 3.90625 12.75 3.90625 25.734375 
Q 3.90625 34.125 6.6875 40.421875 
Q 9.46875 46.734375 15.15625 49.875 
Q 20.84375 53.03125 27.546875 53.03125 
Q 35.984375 53.03125 41.359375 48.75 
Q 46.734375 44.484375 48.25 36.625 
L 39.703125 35.296875 
Q 38.484375 40.53125 35.375 43.15625 
Q 32.28125 45.796875 27.875 45.796875 
Q 21.234375 45.796875 17.078125 41.03125 
Q 12.9375 36.28125 12.9375 25.984375 
Q 12.9375 15.53125 16.9375 10.796875 
Q 20.953125 6.0625 27.390625 6.0625 
Q 32.5625 6.0625 36.03125 9.234375 
Q 39.5 12.40625 40.4375 19 
z
" id="ArialMT-99"/>
       <path d="M 3.328125 25.921875 
Q 3.328125 40.328125 11.328125 47.265625 
Q 18.015625 53.03125 27.640625 53.03125 
Q 38.328125 53.03125 45.109375 46.015625 
Q 51.90625 39.015625 51.90625 26.65625 
Q 51.90625 16.65625 48.90625 10.90625 
Q 45.90625 5.171875 40.15625 2 
Q 34.421875 -1.171875 27.640625 -1.171875 
Q 16.75 -1.171875 10.03125 5.8125 
Q 3.328125 12.796875 3.328125 25.921875 
z
M 12.359375 25.921875 
Q 12.359375 15.96875 16.703125 11.015625 
Q 21.046875 6.0625 27.640625 6.0625 
Q 34.1875 6.0625 38.53125 11.03125 
Q 42.875 16.015625 42.875 26.21875 
Q 42.875 35.84375 38.5 40.796875 
Q 34.125 45.75 27.640625 45.75 
Q 21.046875 45.75 16.703125 40.8125 
Q 12.359375 35.890625 12.359375 25.921875 
z
" id="ArialMT-111"/>
       <path d="M 6.59375 0 
L 6.59375 51.859375 
L 14.5 51.859375 
L 14.5 44.484375 
Q 20.21875 53.03125 31 53.03125 
Q 35.6875 53.03125 39.625 51.34375 
Q 43.5625 49.65625 45.515625 46.921875 
Q 47.46875 44.1875 48.25 40.4375 
Q 48.734375 37.984375 48.734375 31.890625 
L 48.734375 0 
L 39.9375 0 
L 39.9375 31.546875 
Q 39.9375 36.921875 38.90625 39.578125 
Q 37.890625 42.234375 35.28125 43.8125 
Q 32.671875 45.40625 29.15625 45.40625 
Q 23.53125 45.40625 19.453125 41.84375 
Q 15.375 38.28125 15.375 28.328125 
L 15.375 0 
z
" id="ArialMT-110"/>
       <path d="M 42.09375 16.703125 
L 51.171875 15.578125 
Q 49.03125 7.625 43.21875 3.21875 
Q 37.40625 -1.171875 28.375 -1.171875 
Q 17 -1.171875 10.328125 5.828125 
Q 3.65625 12.84375 3.65625 25.484375 
Q 3.65625 38.578125 10.390625 45.796875 
Q 17.140625 53.03125 27.875 53.03125 
Q 38.28125 53.03125 44.875 45.953125 
Q 51.46875 38.875 51.46875 26.03125 
Q 51.46875 25.25 51.421875 23.6875 
L 12.75 23.6875 
Q 13.234375 15.140625 17.578125 10.59375 
Q 21.921875 6.0625 28.421875 6.0625 
Q 33.25 6.0625 36.671875 8.59375 
Q 40.09375 11.140625 42.09375 16.703125 
z
M 13.234375 30.90625 
L 42.1875 30.90625 
Q 41.609375 37.453125 38.875 40.71875 
Q 34.671875 45.796875 27.984375 45.796875 
Q 21.921875 45.796875 17.796875 41.75 
Q 13.671875 37.703125 13.234375 30.90625 
z
" id="ArialMT-101"/>
       <path d="M 25.78125 7.859375 
L 27.046875 0.09375 
Q 23.34375 -0.6875 20.40625 -0.6875 
Q 15.625 -0.6875 12.984375 0.828125 
Q 10.359375 2.34375 9.28125 4.8125 
Q 8.203125 7.28125 8.203125 15.1875 
L 8.203125 45.015625 
L 1.765625 45.015625 
L 1.765625 51.859375 
L 8.203125 51.859375 
L 8.203125 64.703125 
L 16.9375 69.96875 
L 16.9375 51.859375 
L 25.78125 51.859375 
L 25.78125 45.015625 
L 16.9375 45.015625 
L 16.9375 14.703125 
Q 16.9375 10.9375 17.40625 9.859375 
Q 17.875 8.796875 18.921875 8.15625 
Q 19.96875 7.515625 21.921875 7.515625 
Q 23.390625 7.515625 25.78125 7.859375 
z
" id="ArialMT-116"/>
       <path d="M 6.5 0 
L 6.5 51.859375 
L 14.40625 51.859375 
L 14.40625 44 
Q 17.4375 49.515625 20 51.265625 
Q 22.5625 53.03125 25.640625 53.03125 
Q 30.078125 53.03125 34.671875 50.203125 
L 31.640625 42.046875 
Q 28.421875 43.953125 25.203125 43.953125 
Q 22.3125 43.953125 20.015625 42.21875 
Q 17.71875 40.484375 16.75 37.40625 
Q 15.28125 32.71875 15.28125 27.15625 
L 15.28125 0 
z
" id="ArialMT-114"/>
       <path d="M 40.4375 6.390625 
Q 35.546875 2.25 31.03125 0.53125 
Q 26.515625 -1.171875 21.34375 -1.171875 
Q 12.796875 -1.171875 8.203125 3 
Q 3.609375 7.171875 3.609375 13.671875 
Q 3.609375 17.484375 5.34375 20.625 
Q 7.078125 23.78125 9.890625 25.6875 
Q 12.703125 27.59375 16.21875 28.5625 
Q 18.796875 29.25 24.03125 29.890625 
Q 34.671875 31.15625 39.703125 32.90625 
Q 39.75 34.71875 39.75 35.203125 
Q 39.75 40.578125 37.25 42.78125 
Q 33.890625 45.75 27.25 45.75 
Q 21.046875 45.75 18.09375 43.578125 
Q 15.140625 41.40625 13.71875 35.890625 
L 5.125 37.0625 
Q 6.296875 42.578125 8.984375 45.96875 
Q 11.671875 49.359375 16.75 51.1875 
Q 21.828125 53.03125 28.515625 53.03125 
Q 35.15625 53.03125 39.296875 51.46875 
Q 43.453125 49.90625 45.40625 47.53125 
Q 47.359375 45.171875 48.140625 41.546875 
Q 48.578125 39.3125 48.578125 33.453125 
L 48.578125 21.734375 
Q 48.578125 9.46875 49.140625 6.21875 
Q 49.703125 2.984375 51.375 0 
L 42.1875 0 
Q 40.828125 2.734375 40.4375 6.390625 
z
M 39.703125 26.03125 
Q 34.90625 24.078125 25.34375 22.703125 
Q 19.921875 21.921875 17.671875 20.9375 
Q 15.4375 19.96875 14.203125 18.09375 
Q 12.984375 16.21875 12.984375 13.921875 
Q 12.984375 10.40625 15.640625 8.0625 
Q 18.3125 5.71875 23.4375 5.71875 
Q 28.515625 5.71875 32.46875 7.9375 
Q 36.421875 10.15625 38.28125 14.015625 
Q 39.703125 17 39.703125 22.796875 
z
" id="ArialMT-97"/>
       <path d="M 6.640625 61.46875 
L 6.640625 71.578125 
L 15.4375 71.578125 
L 15.4375 61.46875 
z
M 6.640625 0 
L 6.640625 51.859375 
L 15.4375 51.859375 
L 15.4375 0 
z
" id="ArialMT-105"/>
       <path d="M 6.78125 -19.875 
L 6.78125 71.578125 
L 26.171875 71.578125 
L 26.171875 64.3125 
L 15.578125 64.3125 
L 15.578125 -12.59375 
L 26.171875 -12.59375 
L 26.171875 -19.875 
z
" id="ArialMT-91"/>
       <path d="M 5.8125 54.390625 
Q 5.8125 62.0625 9.671875 67.421875 
Q 13.53125 72.796875 20.84375 72.796875 
Q 27.59375 72.796875 32 67.984375 
Q 36.421875 63.1875 36.421875 53.859375 
Q 36.421875 44.78125 31.953125 39.875 
Q 27.484375 34.96875 20.953125 34.96875 
Q 14.453125 34.96875 10.125 39.796875 
Q 5.8125 44.625 5.8125 54.390625 
z
M 21.09375 66.75 
Q 17.828125 66.75 15.65625 63.90625 
Q 13.484375 61.078125 13.484375 53.515625 
Q 13.484375 46.625 15.671875 43.8125 
Q 17.875 41.015625 21.09375 41.015625 
Q 24.421875 41.015625 26.59375 43.84375 
Q 28.765625 46.6875 28.765625 54.203125 
Q 28.765625 61.140625 26.5625 63.9375 
Q 24.359375 66.75 21.09375 66.75 
z
M 21.140625 -2.640625 
L 60.296875 72.796875 
L 67.4375 72.796875 
L 28.421875 -2.640625 
z
M 52.09375 16.796875 
Q 52.09375 24.515625 55.953125 29.859375 
Q 59.8125 35.203125 67.1875 35.203125 
Q 73.921875 35.203125 78.34375 30.390625 
Q 82.765625 25.59375 82.765625 16.265625 
Q 82.765625 7.171875 78.296875 2.265625 
Q 73.828125 -2.640625 67.234375 -2.640625 
Q 60.75 -2.640625 56.421875 2.21875 
Q 52.09375 7.078125 52.09375 16.796875 
z
M 67.4375 29.15625 
Q 64.109375 29.15625 61.9375 26.3125 
Q 59.765625 23.484375 59.765625 15.921875 
Q 59.765625 9.078125 61.953125 6.25 
Q 64.15625 3.421875 67.390625 3.421875 
Q 70.75 3.421875 72.921875 6.25 
Q 75.09375 9.078125 75.09375 16.609375 
Q 75.09375 23.53125 72.890625 26.34375 
Q 70.703125 29.15625 67.4375 29.15625 
z
" id="ArialMT-37"/>
       <path d="M 21.296875 -19.875 
L 1.90625 -19.875 
L 1.90625 -12.59375 
L 12.5 -12.59375 
L 12.5 64.3125 
L 1.90625 64.3125 
L 1.90625 71.578125 
L 21.296875 71.578125 
z
" id="ArialMT-93"/>
      </defs>
      <use transform="translate(0 0.140625)" xlink:href="#ArialMT-79"/>
      <use transform="translate(78.740234 -16.265625)scale(0.7)" xlink:href="#DejaVuSans-50"/>
      <use transform="translate(126.010742 0.140625)" xlink:href="#ArialMT-32"/>
      <use transform="translate(153.793945 0.140625)" xlink:href="#ArialMT-99"/>
      <use transform="translate(203.793945 0.140625)" xlink:href="#ArialMT-111"/>
      <use transform="translate(259.40918 0.140625)" xlink:href="#ArialMT-110"/>
      <use transform="translate(315.024414 0.140625)" xlink:href="#ArialMT-99"/>
      <use transform="translate(365.024414 0.140625)" xlink:href="#ArialMT-101"/>
      <use transform="translate(420.639648 0.140625)" xlink:href="#ArialMT-110"/>
      <use transform="translate(476.254883 0.140625)" xlink:href="#ArialMT-116"/>
      <use transform="translate(504.038086 0.140625)" xlink:href="#ArialMT-114"/>
      <use transform="translate(537.338867 0.140625)" xlink:href="#ArialMT-97"/>
      <use transform="translate(592.954102 0.140625)" xlink:href="#ArialMT-116"/>
      <use transform="translate(620.737305 0.140625)" xlink:href="#ArialMT-105"/>
      <use transform="translate(642.954102 0.140625)" xlink:href="#ArialMT-111"/>
      <use transform="translate(698.569336 0.140625)" xlink:href="#ArialMT-110"/>
      <use transform="translate(754.18457 0.140625)" xlink:href="#ArialMT-32"/>
      <use transform="translate(781.967773 0.140625)" xlink:href="#ArialMT-91"/>
      <use transform="translate(809.750977 0.140625)" xlink:href="#ArialMT-37"/>
      <use transform="translate(898.666992 0.140625)" xlink:href="#ArialMT-97"/>
      <use transform="translate(954.282227 0.140625)" xlink:href="#ArialMT-105"/>
      <use transform="translate(976.499023 0.140625)" xlink:href="#ArialMT-114"/>
      <use transform="translate(1009.799805 0.140625)" xlink:href="#ArialMT-93"/>
     </g>
    </g>
   </g>
   <g id="matplotlib.axis_2">
    <g id="ytick_1">
     <g id="line2d_7">
      <path clip-path="url(#p85b6c7e0cf)" d="M 43.548 153.364421 
L 296.902 153.364421 
" style="fill:none;stroke:#ffffff;stroke-linecap:round;stroke-width:0.8;"/>
     </g>
     <g id="text_8">
      <!-- 1.0 -->
      <g style="fill:#262626;" transform="translate(20.792 157.086484)scale(0.104 -0.104)">
       <defs>
        <path d="M 9.078125 0 
L 9.078125 10.015625 
L 19.09375 10.015625 
L 19.09375 0 
z
" id="ArialMT-46"/>
       </defs>
       <use xlink:href="#ArialMT-49"/>
       <use x="55.615234" xlink:href="#ArialMT-46"/>
       <use x="83.398438" xlink:href="#ArialMT-48"/>
      </g>
     </g>
    </g>
    <g id="ytick_2">
     <g id="line2d_8">
      <path clip-path="url(#p85b6c7e0cf)" d="M 43.548 127.694322 
L 296.902 127.694322 
" style="fill:none;stroke:#ffffff;stroke-linecap:round;stroke-width:0.8;"/>
     </g>
     <g id="text_9">
      <!-- 1.2 -->
      <g style="fill:#262626;" transform="translate(20.792 131.416384)scale(0.104 -0.104)">
       <use xlink:href="#ArialMT-49"/>
       <use x="55.615234" xlink:href="#ArialMT-46"/>
       <use x="83.398438" xlink:href="#ArialMT-50"/>
      </g>
     </g>
    </g>
    <g id="ytick_3">
     <g id="line2d_9">
      <path clip-path="url(#p85b6c7e0cf)" d="M 43.548 102.024223 
L 296.902 102.024223 
" style="fill:none;stroke:#ffffff;stroke-linecap:round;stroke-width:0.8;"/>
     </g>
     <g id="text_10">
      <!-- 1.4 -->
      <g style="fill:#262626;" transform="translate(20.792 105.746285)scale(0.104 -0.104)">
       <use xlink:href="#ArialMT-49"/>
       <use x="55.615234" xlink:href="#ArialMT-46"/>
       <use x="83.398438" xlink:href="#ArialMT-52"/>
      </g>
     </g>
    </g>
    <g id="ytick_4">
     <g id="line2d_10">
      <path clip-path="url(#p85b6c7e0cf)" d="M 43.548 76.354123 
L 296.902 76.354123 
" style="fill:none;stroke:#ffffff;stroke-linecap:round;stroke-width:0.8;"/>
     </g>
     <g id="text_11">
      <!-- 1.6 -->
      <g style="fill:#262626;" transform="translate(20.792 80.076186)scale(0.104 -0.104)">
       <use xlink:href="#ArialMT-49"/>
       <use x="55.615234" xlink:href="#ArialMT-46"/>
       <use x="83.398438" xlink:href="#ArialMT-54"/>
      </g>
     </g>
    </g>
    <g id="ytick_5">
     <g id="line2d_11">
      <path clip-path="url(#p85b6c7e0cf)" d="M 43.548 50.684024 
L 296.902 50.684024 
" style="fill:none;stroke:#ffffff;stroke-linecap:round;stroke-width:0.8;"/>
     </g>
     <g id="text_12">
      <!-- 1.8 -->
      <g style="fill:#262626;" transform="translate(20.792 54.406087)scale(0.104 -0.104)">
       <use xlink:href="#ArialMT-49"/>
       <use x="55.615234" xlink:href="#ArialMT-46"/>
       <use x="83.398438" xlink:href="#ArialMT-56"/>
      </g>
     </g>
    </g>
    <g id="text_13">
     <!-- Ratio $R/G$ -->
     <g style="fill:#262626;" transform="translate(19.816633 126.415125)rotate(-90)scale(0.117 -0.117)">
      <defs>
       <path d="M 7.859375 0 
L 7.859375 71.578125 
L 39.59375 71.578125 
Q 49.171875 71.578125 54.140625 69.640625 
Q 59.125 67.71875 62.109375 62.828125 
Q 65.09375 57.953125 65.09375 52.046875 
Q 65.09375 44.4375 60.15625 39.203125 
Q 55.21875 33.984375 44.921875 32.5625 
Q 48.6875 30.765625 50.640625 29 
Q 54.78125 25.203125 58.5 19.484375 
L 70.953125 0 
L 59.03125 0 
L 49.5625 14.890625 
Q 45.40625 21.34375 42.71875 24.75 
Q 40.046875 28.171875 37.921875 29.53125 
Q 35.796875 30.90625 33.59375 31.453125 
Q 31.984375 31.78125 28.328125 31.78125 
L 17.328125 31.78125 
L 17.328125 0 
z
M 17.328125 39.984375 
L 37.703125 39.984375 
Q 44.1875 39.984375 47.84375 41.328125 
Q 51.515625 42.671875 53.421875 45.625 
Q 55.328125 48.578125 55.328125 52.046875 
Q 55.328125 57.125 51.640625 60.390625 
Q 47.953125 63.671875 39.984375 63.671875 
L 17.328125 63.671875 
z
" id="ArialMT-82"/>
       <path d="M 25.203125 64.796875 
L 20.21875 38.921875 
L 32.90625 38.921875 
Q 40.375 38.921875 44.984375 43.046875 
Q 49.609375 47.171875 49.609375 53.8125 
Q 49.609375 59.125 46.5 61.953125 
Q 43.40625 64.796875 37.59375 64.796875 
z
M 43.3125 35.015625 
Q 46.4375 34.28125 48.515625 31.390625 
Q 50.59375 28.515625 53.328125 19.921875 
L 59.515625 0 
L 49.125 0 
L 43.40625 18.703125 
Q 41.21875 25.921875 38.328125 28.359375 
Q 35.453125 30.8125 29.5 30.8125 
L 18.609375 30.8125 
L 12.59375 0 
L 2.6875 0 
L 16.890625 72.90625 
L 39.109375 72.90625 
Q 49.21875 72.90625 54.609375 68.328125 
Q 60.015625 63.765625 60.015625 55.171875 
Q 60.015625 47.5625 55.421875 41.984375 
Q 50.828125 36.421875 43.3125 35.015625 
z
" id="DejaVuSans-Oblique-82"/>
       <path d="M 25.390625 72.90625 
L 33.6875 72.90625 
L 8.296875 -9.28125 
L 0 -9.28125 
z
" id="DejaVuSans-47"/>
       <path d="M 54.59375 10.890625 
L 58.40625 29.984375 
L 42.1875 29.984375 
L 43.703125 38.09375 
L 69.578125 38.09375 
L 63.28125 6 
Q 56.78125 2.4375 49.109375 0.5 
Q 41.453125 -1.421875 33.6875 -1.421875 
Q 19.96875 -1.421875 12.234375 6.1875 
Q 4.5 13.8125 4.5 27.390625 
Q 4.5 38.671875 9.203125 48.84375 
Q 13.921875 59.03125 22.21875 65.828125 
Q 27.4375 70.0625 33.640625 72.140625 
Q 39.84375 74.21875 47.40625 74.21875 
Q 54.25 74.21875 60.515625 72.484375 
Q 66.796875 70.75 72.515625 67.28125 
L 70.515625 56.78125 
Q 66.109375 61.375 60.203125 63.796875 
Q 54.296875 66.21875 47.609375 66.21875 
Q 39.84375 66.21875 33.9375 63.25 
Q 28.03125 60.296875 23.390625 54.109375 
Q 19.4375 48.828125 17.15625 41.671875 
Q 14.890625 34.515625 14.890625 27.09375 
Q 14.890625 16.890625 20.109375 11.734375 
Q 25.34375 6.59375 35.6875 6.59375 
Q 40.875 6.59375 45.703125 7.6875 
Q 50.53125 8.796875 54.59375 10.890625 
z
" id="DejaVuSans-Oblique-71"/>
      </defs>
      <use transform="translate(0 0.78125)" xlink:href="#ArialMT-82"/>
      <use transform="translate(72.216797 0.78125)" xlink:href="#ArialMT-97"/>
      <use transform="translate(127.832031 0.78125)" xlink:href="#ArialMT-116"/>
      <use transform="translate(155.615234 0.78125)" xlink:href="#ArialMT-105"/>
      <use transform="translate(177.832031 0.78125)" xlink:href="#ArialMT-111"/>
      <use transform="translate(233.447266 0.78125)" xlink:href="#ArialMT-32"/>
      <use transform="translate(261.230469 0.78125)" xlink:href="#DejaVuSans-Oblique-82"/>
      <use transform="translate(330.712891 0.78125)" xlink:href="#DejaVuSans-47"/>
      <use transform="translate(364.404297 0.78125)" xlink:href="#DejaVuSans-Oblique-71"/>
     </g>
    </g>
   </g>
   <g id="PolyCollection_1">
    <defs>
     <path d="M 55.064091 -184.07267 
L 55.064091 -167.950923 
L 55.294413 -167.608344 
L 55.524735 -167.266595 
L 55.755056 -166.925676 
L 55.985378 -166.585584 
L 56.2157 -166.24632 
L 56.446022 -165.907881 
L 56.676344 -165.570266 
L 56.906665 -165.233474 
L 57.136987 -164.897503 
L 57.367309 -164.562353 
L 57.597631 -164.228023 
L 57.827953 -163.89451 
L 58.058275 -163.561813 
L 58.288596 -163.229932 
L 58.518918 -162.898866 
L 58.74924 -162.568611 
L 58.979562 -162.239169 
L 59.209884 -161.910536 
L 59.440205 -161.582713 
L 59.670527 -161.255697 
L 59.900849 -160.929488 
L 60.131171 -160.604084 
L 60.361493 -160.279484 
L 60.591815 -159.955686 
L 60.822136 -159.63269 
L 61.052458 -159.310494 
L 61.28278 -158.989097 
L 61.513102 -158.668497 
L 61.743424 -158.348694 
L 61.973745 -158.029686 
L 62.204067 -157.711471 
L 62.434389 -157.394049 
L 62.664711 -157.077418 
L 62.895033 -156.761577 
L 63.125355 -156.446525 
L 63.355676 -156.13226 
L 63.585998 -155.818781 
L 63.81632 -155.506088 
L 64.046642 -155.194177 
L 64.276964 -154.883049 
L 64.507285 -154.572703 
L 64.737607 -154.263136 
L 64.967929 -153.954347 
L 65.198251 -153.646336 
L 65.428573 -153.3391 
L 65.658895 -153.03264 
L 65.889216 -152.726953 
L 66.119538 -152.422038 
L 66.34986 -152.117894 
L 66.580182 -151.814519 
L 66.810504 -151.511913 
L 67.040825 -151.210075 
L 67.271147 -150.909001 
L 67.501469 -150.608693 
L 67.731791 -150.309148 
L 67.962113 -150.010364 
L 68.192435 -149.712342 
L 68.422756 -149.415079 
L 68.653078 -149.118574 
L 68.8834 -148.822827 
L 69.113722 -148.527834 
L 69.344044 -148.233597 
L 69.574365 -147.940112 
L 69.804687 -147.64738 
L 70.035009 -147.355398 
L 70.265331 -147.064165 
L 70.495653 -146.77368 
L 70.725975 -146.483942 
L 70.956296 -146.19495 
L 71.186618 -145.906702 
L 71.41694 -145.619197 
L 71.647262 -145.332433 
L 71.877584 -145.04641 
L 72.107905 -144.761127 
L 72.338227 -144.476581 
L 72.568549 -144.192772 
L 72.798871 -143.909698 
L 73.029193 -143.627358 
L 73.259515 -143.345751 
L 73.489836 -143.064876 
L 73.720158 -142.784731 
L 73.95048 -142.505315 
L 74.180802 -142.226627 
L 74.411124 -141.948665 
L 74.641445 -141.671429 
L 74.871767 -141.394916 
L 75.102089 -141.119126 
L 75.332411 -140.844058 
L 75.562733 -140.56971 
L 75.793055 -140.29608 
L 76.023376 -140.023169 
L 76.253698 -139.750973 
L 76.48402 -139.479493 
L 76.714342 -139.208726 
L 76.944664 -138.938672 
L 77.174985 -138.669329 
L 77.405307 -138.400697 
L 77.635629 -138.132772 
L 77.865951 -137.865556 
L 78.096273 -137.599045 
L 78.326595 -137.33324 
L 78.556916 -137.068138 
L 78.787238 -136.803739 
L 79.01756 -136.54004 
L 79.247882 -136.277042 
L 79.478204 -136.014742 
L 79.708525 -135.753139 
L 79.938847 -135.492233 
L 80.169169 -135.232021 
L 80.399491 -134.972502 
L 80.629813 -134.713676 
L 80.860135 -134.455541 
L 81.090456 -134.198096 
L 81.320778 -133.941338 
L 81.5511 -133.685269 
L 81.781422 -133.429885 
L 82.011744 -133.175185 
L 82.242065 -132.921169 
L 82.472387 -132.667835 
L 82.702709 -132.415182 
L 82.933031 -132.163208 
L 83.163353 -131.911913 
L 83.393675 -131.661294 
L 83.623996 -131.411352 
L 83.854318 -131.162084 
L 84.08464 -130.913489 
L 84.314962 -130.665565 
L 84.545284 -130.418313 
L 84.775605 -130.17173 
L 85.005927 -129.925815 
L 85.236249 -129.680567 
L 85.466571 -129.435984 
L 85.696893 -129.192066 
L 85.927215 -128.948811 
L 86.157536 -128.706218 
L 86.387858 -128.464285 
L 86.61818 -128.223011 
L 86.848502 -127.982395 
L 87.078824 -127.742436 
L 87.309145 -127.503133 
L 87.539467 -127.264483 
L 87.769789 -127.026487 
L 88.000111 -126.789142 
L 88.230433 -126.552447 
L 88.460755 -126.316402 
L 88.691076 -126.081004 
L 88.921398 -125.846253 
L 89.15172 -125.612147 
L 89.382042 -125.378685 
L 89.612364 -125.145866 
L 89.842685 -124.913688 
L 90.073007 -124.682151 
L 90.303329 -124.451252 
L 90.533651 -124.220991 
L 90.763973 -123.991367 
L 90.994295 -123.762377 
L 91.224616 -123.534022 
L 91.454938 -123.306299 
L 91.68526 -123.079207 
L 91.915582 -122.852745 
L 92.145904 -122.626913 
L 92.376225 -122.401707 
L 92.606547 -122.177128 
L 92.836869 -121.953174 
L 93.067191 -121.729844 
L 93.297513 -121.507135 
L 93.527835 -121.285049 
L 93.758156 -121.063582 
L 93.988478 -120.842733 
L 94.2188 -120.622502 
L 94.449122 -120.402887 
L 94.679444 -120.183887 
L 94.909765 -119.965501 
L 95.140087 -119.747726 
L 95.370409 -119.530563 
L 95.600731 -119.31401 
L 95.831053 -119.098064 
L 96.061375 -118.882727 
L 96.291696 -118.667995 
L 96.522018 -118.453867 
L 96.75234 -118.240343 
L 96.982662 -118.027422 
L 97.212984 -117.815101 
L 97.443305 -117.603379 
L 97.673627 -117.392256 
L 97.903949 -117.18173 
L 98.134271 -116.9718 
L 98.364593 -116.762464 
L 98.594915 -116.553722 
L 98.825236 -116.345571 
L 99.055558 -116.138012 
L 99.28588 -115.931041 
L 99.516202 -115.724659 
L 99.746524 -115.518864 
L 99.976845 -115.313654 
L 100.207167 -115.109029 
L 100.437489 -114.904987 
L 100.667811 -114.701526 
L 100.898133 -114.498646 
L 101.128455 -114.296346 
L 101.358776 -114.094623 
L 101.589098 -113.893477 
L 101.81942 -113.692907 
L 102.049742 -113.492911 
L 102.280064 -113.293487 
L 102.510385 -113.094636 
L 102.740707 -112.896355 
L 102.971029 -112.698643 
L 103.201351 -112.501498 
L 103.431673 -112.304921 
L 103.661995 -112.108909 
L 103.892316 -111.91346 
L 104.122638 -111.718575 
L 104.35296 -111.524251 
L 104.583282 -111.330487 
L 104.813604 -111.137282 
L 105.043925 -110.944635 
L 105.274247 -110.752545 
L 105.504569 -110.561009 
L 105.734891 -110.370028 
L 105.965213 -110.179599 
L 106.195535 -109.989721 
L 106.425856 -109.800394 
L 106.656178 -109.611615 
L 106.8865 -109.423384 
L 107.116822 -109.235699 
L 107.347144 -109.04856 
L 107.577465 -108.861964 
L 107.807787 -108.67591 
L 108.038109 -108.490398 
L 108.268431 -108.305425 
L 108.498753 -108.120992 
L 108.729075 -107.937095 
L 108.959396 -107.753735 
L 109.189718 -107.57091 
L 109.42004 -107.388618 
L 109.650362 -107.206858 
L 109.880684 -107.02563 
L 110.111005 -106.844931 
L 110.341327 -106.664761 
L 110.571649 -106.485118 
L 110.801971 -106.306002 
L 111.032293 -106.127409 
L 111.262615 -105.949341 
L 111.492936 -105.771794 
L 111.723258 -105.594768 
L 111.95358 -105.418262 
L 112.183902 -105.242275 
L 112.414224 -105.066804 
L 112.644545 -104.891849 
L 112.874867 -104.717409 
L 113.105189 -104.543482 
L 113.335511 -104.370068 
L 113.565833 -104.197163 
L 113.796155 -104.024769 
L 114.026476 -103.852882 
L 114.256798 -103.681503 
L 114.48712 -103.510629 
L 114.717442 -103.34026 
L 114.947764 -103.170393 
L 115.178085 -103.001029 
L 115.408407 -102.832165 
L 115.638729 -102.6638 
L 115.869051 -102.495934 
L 116.099373 -102.328564 
L 116.329695 -102.16169 
L 116.560016 -101.99531 
L 116.790338 -101.829423 
L 117.02066 -101.664028 
L 117.250982 -101.499123 
L 117.481304 -101.334708 
L 117.711625 -101.17078 
L 117.941947 -101.007339 
L 118.172269 -100.844384 
L 118.402591 -100.681912 
L 118.632913 -100.519923 
L 118.863235 -100.358416 
L 119.093556 -100.197389 
L 119.323878 -100.036841 
L 119.5542 -99.876771 
L 119.784522 -99.717177 
L 120.014844 -99.558059 
L 120.245165 -99.399415 
L 120.475487 -99.241243 
L 120.705809 -99.083542 
L 120.936131 -98.926312 
L 121.166453 -98.769551 
L 121.396775 -98.613257 
L 121.627096 -98.457429 
L 121.857418 -98.302067 
L 122.08774 -98.147168 
L 122.318062 -97.992732 
L 122.548384 -97.838758 
L 122.778705 -97.685243 
L 123.009027 -97.532187 
L 123.239349 -97.379588 
L 123.469671 -97.227445 
L 123.699993 -97.075758 
L 123.930315 -96.924524 
L 124.160636 -96.773742 
L 124.390958 -96.623412 
L 124.62128 -96.473531 
L 124.851602 -96.324099 
L 125.081924 -96.175114 
L 125.312245 -96.026575 
L 125.542567 -95.878481 
L 125.772889 -95.730831 
L 126.003211 -95.583623 
L 126.233533 -95.436855 
L 126.463855 -95.290528 
L 126.694176 -95.144638 
L 126.924498 -94.999186 
L 127.15482 -94.85417 
L 127.385142 -94.709588 
L 127.615464 -94.56544 
L 127.845785 -94.421724 
L 128.076107 -94.278438 
L 128.306429 -94.135582 
L 128.536751 -93.993155 
L 128.767073 -93.851154 
L 128.997395 -93.709579 
L 129.227716 -93.568428 
L 129.458038 -93.427701 
L 129.68836 -93.287396 
L 129.918682 -93.147511 
L 130.149004 -93.008046 
L 130.379325 -92.868998 
L 130.609647 -92.730368 
L 130.839969 -92.592153 
L 131.070291 -92.454352 
L 131.300613 -92.316965 
L 131.530935 -92.179989 
L 131.761256 -92.043424 
L 131.991578 -91.907268 
L 132.2219 -91.771519 
L 132.452222 -91.636178 
L 132.682544 -91.501242 
L 132.912865 -91.36671 
L 133.143187 -91.232581 
L 133.373509 -91.098854 
L 133.603831 -90.965527 
L 133.834153 -90.832599 
L 134.064475 -90.700068 
L 134.294796 -90.567935 
L 134.525118 -90.436196 
L 134.75544 -90.304852 
L 134.985762 -90.1739 
L 135.216084 -90.04334 
L 135.446405 -89.91317 
L 135.676727 -89.783389 
L 135.907049 -89.653995 
L 136.137371 -89.524988 
L 136.367693 -89.396366 
L 136.598015 -89.268128 
L 136.828336 -89.140272 
L 137.058658 -89.012798 
L 137.28898 -88.885704 
L 137.519302 -88.758988 
L 137.749624 -88.63265 
L 137.979945 -88.506689 
L 138.210267 -88.381102 
L 138.440589 -88.255889 
L 138.670911 -88.131048 
L 138.901233 -88.006578 
L 139.131555 -87.882479 
L 139.361876 -87.758748 
L 139.592198 -87.635384 
L 139.82252 -87.512386 
L 140.052842 -87.389753 
L 140.283164 -87.267484 
L 140.513485 -87.145577 
L 140.743807 -87.024031 
L 140.974129 -86.902845 
L 141.204451 -86.782017 
L 141.434773 -86.661546 
L 141.665095 -86.541431 
L 141.895416 -86.421671 
L 142.125738 -86.302265 
L 142.35606 -86.18321 
L 142.586382 -86.064506 
L 142.816704 -85.946152 
L 143.047025 -85.828146 
L 143.277347 -85.710487 
L 143.507669 -85.593174 
L 143.737991 -85.476206 
L 143.968313 -85.35958 
L 144.198635 -85.243297 
L 144.428956 -85.127354 
L 144.659278 -85.011751 
L 144.8896 -84.896486 
L 145.119922 -84.781558 
L 145.350244 -84.666965 
L 145.580565 -84.552707 
L 145.810887 -84.438781 
L 146.041209 -84.325188 
L 146.271531 -84.211925 
L 146.501853 -84.098992 
L 146.732175 -83.986386 
L 146.962496 -83.874107 
L 147.192818 -83.762154 
L 147.42314 -83.650525 
L 147.653462 -83.539218 
L 147.883784 -83.428234 
L 148.114105 -83.317569 
L 148.344427 -83.207224 
L 148.574749 -83.097197 
L 148.805071 -82.987486 
L 149.035393 -82.878091 
L 149.265715 -82.76901 
L 149.496036 -82.660241 
L 149.726358 -82.551784 
L 149.95668 -82.443637 
L 150.187002 -82.335799 
L 150.417324 -82.228269 
L 150.647645 -82.121045 
L 150.877967 -82.014127 
L 151.108289 -81.907512 
L 151.338611 -81.8012 
L 151.568933 -81.695189 
L 151.799255 -81.589479 
L 152.029576 -81.484067 
L 152.259898 -81.378953 
L 152.49022 -81.274135 
L 152.720542 -81.169612 
L 152.950864 -81.065382 
L 153.181185 -80.961445 
L 153.411507 -80.8578 
L 153.641829 -80.754444 
L 153.872151 -80.651377 
L 154.102473 -80.548597 
L 154.332795 -80.446104 
L 154.563116 -80.343895 
L 154.793438 -80.24197 
L 155.02376 -80.140327 
L 155.254082 -80.038966 
L 155.484404 -79.937884 
L 155.714725 -79.83708 
L 155.945047 -79.736554 
L 156.175369 -79.636304 
L 156.405691 -79.536328 
L 156.636013 -79.436626 
L 156.866335 -79.337196 
L 157.096656 -79.238037 
L 157.326978 -79.139148 
L 157.5573 -79.040527 
L 157.787622 -78.942173 
L 158.017944 -78.844084 
L 158.248265 -78.746261 
L 158.478587 -78.6487 
L 158.708909 -78.551402 
L 158.939231 -78.454365 
L 159.169553 -78.357586 
L 159.399875 -78.261066 
L 159.630196 -78.164803 
L 159.860518 -78.068796 
L 160.09084 -77.973043 
L 160.321162 -77.877543 
L 160.551484 -77.782295 
L 160.781805 -77.687298 
L 161.012127 -77.59255 
L 161.242449 -77.49805 
L 161.472771 -77.403797 
L 161.703093 -77.309789 
L 161.933415 -77.216025 
L 162.163736 -77.122505 
L 162.394058 -77.029226 
L 162.62438 -76.936188 
L 162.854702 -76.843389 
L 163.085024 -76.750827 
L 163.315345 -76.658503 
L 163.545667 -76.566413 
L 163.775989 -76.474558 
L 164.006311 -76.382936 
L 164.236633 -76.291545 
L 164.466955 -76.200384 
L 164.697276 -76.109453 
L 164.927598 -76.018749 
L 165.15792 -75.928271 
L 165.388242 -75.838019 
L 165.618564 -75.747991 
L 165.848885 -75.658185 
L 166.079207 -75.568601 
L 166.309529 -75.479237 
L 166.539851 -75.390092 
L 166.770173 -75.301165 
L 167.000495 -75.212453 
L 167.230816 -75.123957 
L 167.461138 -75.035675 
L 167.69146 -74.947605 
L 167.921782 -74.859746 
L 168.152104 -74.772097 
L 168.382425 -74.684657 
L 168.612747 -74.597425 
L 168.843069 -74.510398 
L 169.073391 -74.423577 
L 169.303713 -74.336959 
L 169.534035 -74.250544 
L 169.764356 -74.164329 
L 169.994678 -74.078315 
L 170.225 -73.992499 
L 170.455322 -73.90688 
L 170.685644 -73.821458 
L 170.915965 -73.736233 
L 171.146287 -73.651204 
L 171.376609 -73.56637 
L 171.606931 -73.481731 
L 171.837253 -73.397288 
L 172.067575 -73.313038 
L 172.297896 -73.228982 
L 172.528218 -73.14512 
L 172.75854 -73.06145 
L 172.988862 -72.977973 
L 173.219184 -72.894688 
L 173.449505 -72.811595 
L 173.679827 -72.728693 
L 173.910149 -72.645982 
L 174.140471 -72.563462 
L 174.370793 -72.481131 
L 174.601115 -72.39899 
L 174.831436 -72.317038 
L 175.061758 -72.235274 
L 175.29208 -72.153699 
L 175.522402 -72.072312 
L 175.752724 -71.991112 
L 175.983045 -71.910099 
L 176.213367 -71.829272 
L 176.443689 -71.748631 
L 176.674011 -71.668177 
L 176.904333 -71.587907 
L 177.134655 -71.507822 
L 177.364976 -71.427922 
L 177.595298 -71.348205 
L 177.82562 -71.268672 
L 178.055942 -71.189322 
L 178.286264 -71.110154 
L 178.516585 -71.031169 
L 178.746907 -70.952365 
L 178.977229 -70.873743 
L 179.207551 -70.795302 
L 179.437873 -70.717041 
L 179.668195 -70.63896 
L 179.898516 -70.561059 
L 180.128838 -70.483337 
L 180.35916 -70.405794 
L 180.589482 -70.328429 
L 180.819804 -70.251242 
L 181.050125 -70.174232 
L 181.280447 -70.0974 
L 181.510769 -70.020744 
L 181.741091 -69.944264 
L 181.971413 -69.86796 
L 182.201735 -69.791831 
L 182.432056 -69.715877 
L 182.662378 -69.640098 
L 182.8927 -69.564492 
L 183.123022 -69.48906 
L 183.353344 -69.413801 
L 183.583665 -69.338715 
L 183.813987 -69.263801 
L 184.044309 -69.189059 
L 184.274631 -69.114489 
L 184.504953 -69.040089 
L 184.735275 -68.96586 
L 184.965596 -68.891801 
L 185.195918 -68.817912 
L 185.42624 -68.744192 
L 185.656562 -68.670641 
L 185.886884 -68.597258 
L 186.117205 -68.524043 
L 186.347527 -68.450996 
L 186.577849 -68.378116 
L 186.808171 -68.305402 
L 187.038493 -68.232855 
L 187.268815 -68.160474 
L 187.499136 -68.088258 
L 187.729458 -68.016206 
L 187.95978 -67.94432 
L 188.190102 -67.872597 
L 188.420424 -67.801038 
L 188.650745 -67.729643 
L 188.881067 -67.65841 
L 189.111389 -67.587339 
L 189.341711 -67.516431 
L 189.572033 -67.445684 
L 189.802355 -67.375098 
L 190.032676 -67.304672 
L 190.262998 -67.234407 
L 190.49332 -67.164302 
L 190.723642 -67.094355 
L 190.953964 -67.024568 
L 191.184285 -66.95494 
L 191.414607 -66.885469 
L 191.644929 -66.816156 
L 191.875251 -66.747 
L 192.105573 -66.678001 
L 192.335895 -66.609158 
L 192.566216 -66.540471 
L 192.796538 -66.47194 
L 193.02686 -66.403563 
L 193.257182 -66.335341 
L 193.487504 -66.267274 
L 193.717825 -66.19936 
L 193.948147 -66.131599 
L 194.178469 -66.063991 
L 194.408791 -65.996536 
L 194.639113 -65.929233 
L 194.869435 -65.862081 
L 195.099756 -65.795081 
L 195.330078 -65.728231 
L 195.5604 -65.661531 
L 195.790722 -65.594981 
L 196.021044 -65.528581 
L 196.251365 -65.46233 
L 196.481687 -65.396227 
L 196.712009 -65.330272 
L 196.942331 -65.264465 
L 197.172653 -65.198806 
L 197.402975 -65.133293 
L 197.633296 -65.067926 
L 197.863618 -65.002706 
L 198.09394 -64.937631 
L 198.324262 -64.872701 
L 198.554584 -64.807916 
L 198.784905 -64.743275 
L 199.015227 -64.678778 
L 199.245549 -64.614424 
L 199.475871 -64.550214 
L 199.706193 -64.486145 
L 199.936515 -64.422219 
L 200.166836 -64.358435 
L 200.397158 -64.294792 
L 200.62748 -64.231289 
L 200.857802 -64.167927 
L 201.088124 -64.104705 
L 201.318445 -64.041622 
L 201.548767 -63.978679 
L 201.779089 -63.915874 
L 202.009411 -63.853207 
L 202.239733 -63.790678 
L 202.470055 -63.728287 
L 202.700376 -63.666032 
L 202.930698 -63.603914 
L 203.16102 -63.541932 
L 203.391342 -63.480085 
L 203.621664 -63.418374 
L 203.851985 -63.356797 
L 204.082307 -63.295355 
L 204.312629 -63.234047 
L 204.542951 -63.172872 
L 204.773273 -63.11183 
L 205.003595 -63.050921 
L 205.233916 -62.990144 
L 205.464238 -62.929498 
L 205.69456 -62.868984 
L 205.924882 -62.808601 
L 206.155204 -62.748349 
L 206.385525 -62.688226 
L 206.615847 -62.628233 
L 206.846169 -62.568369 
L 207.076491 -62.508634 
L 207.306813 -62.449027 
L 207.537135 -62.389548 
L 207.767456 -62.330196 
L 207.997778 -62.270971 
L 208.2281 -62.211873 
L 208.458422 -62.152902 
L 208.688744 -62.094055 
L 208.919065 -62.035334 
L 209.149387 -61.976738 
L 209.379709 -61.918267 
L 209.610031 -61.859919 
L 209.840353 -61.801695 
L 210.070675 -61.743594 
L 210.300996 -61.685615 
L 210.531318 -61.627759 
L 210.76164 -61.570025 
L 210.991962 -61.512412 
L 211.222284 -61.45492 
L 211.452605 -61.397549 
L 211.682927 -61.340298 
L 211.913249 -61.283166 
L 212.143571 -61.226154 
L 212.373893 -61.16926 
L 212.604215 -61.112485 
L 212.834536 -61.055828 
L 213.064858 -60.999288 
L 213.29518 -60.942865 
L 213.525502 -60.886559 
L 213.755824 -60.830369 
L 213.986145 -60.774295 
L 214.216467 -60.718337 
L 214.446789 -60.662493 
L 214.677111 -60.606764 
L 214.907433 -60.551148 
L 215.137755 -60.495647 
L 215.368076 -60.440259 
L 215.598398 -60.384983 
L 215.82872 -60.32982 
L 216.059042 -60.274768 
L 216.289364 -60.219829 
L 216.519685 -60.165 
L 216.750007 -60.110282 
L 216.980329 -60.055674 
L 217.210651 -60.001175 
L 217.440973 -59.946786 
L 217.671295 -59.892506 
L 217.901616 -59.838335 
L 218.131938 -59.784271 
L 218.36226 -59.730315 
L 218.592582 -59.676466 
L 218.822904 -59.622724 
L 219.053225 -59.569088 
L 219.283547 -59.515558 
L 219.513869 -59.462134 
L 219.744191 -59.408814 
L 219.974513 -59.3556 
L 220.204835 -59.302489 
L 220.435156 -59.249482 
L 220.665478 -59.196578 
L 220.8958 -59.143777 
L 221.126122 -59.091079 
L 221.356444 -59.038482 
L 221.586765 -58.985987 
L 221.817087 -58.933593 
L 222.047409 -58.8813 
L 222.277731 -58.829107 
L 222.508053 -58.777014 
L 222.738375 -58.725021 
L 222.968696 -58.673126 
L 223.199018 -58.62133 
L 223.42934 -58.569632 
L 223.659662 -58.518031 
L 223.889984 -58.466528 
L 224.120305 -58.415122 
L 224.350627 -58.363812 
L 224.580949 -58.312598 
L 224.811271 -58.26148 
L 225.041593 -58.210456 
L 225.271915 -58.159528 
L 225.502236 -58.108693 
L 225.732558 -58.057953 
L 225.96288 -58.007305 
L 226.193202 -57.956751 
L 226.423524 -57.906289 
L 226.653845 -57.855919 
L 226.884167 -57.805641 
L 227.114489 -57.755454 
L 227.344811 -57.705358 
L 227.575133 -57.655352 
L 227.805455 -57.605436 
L 228.035776 -57.55561 
L 228.266098 -57.505873 
L 228.49642 -57.456224 
L 228.726742 -57.406663 
L 228.957064 -57.35719 
L 229.187385 -57.307805 
L 229.417707 -57.258506 
L 229.648029 -57.209294 
L 229.878351 -57.160168 
L 230.108673 -57.111128 
L 230.338995 -57.062172 
L 230.569316 -57.013302 
L 230.799638 -56.964516 
L 231.02996 -56.915813 
L 231.260282 -56.867194 
L 231.490604 -56.818658 
L 231.720925 -56.770205 
L 231.951247 -56.721834 
L 232.181569 -56.673544 
L 232.411891 -56.625336 
L 232.642213 -56.577209 
L 232.872535 -56.529162 
L 233.102856 -56.481195 
L 233.333178 -56.433308 
L 233.5635 -56.3855 
L 233.793822 -56.33777 
L 234.024144 -56.290119 
L 234.254465 -56.242546 
L 234.484787 -56.19505 
L 234.715109 -56.147631 
L 234.945431 -56.100288 
L 235.175753 -56.053022 
L 235.406075 -56.005831 
L 235.636396 -55.958716 
L 235.866718 -55.911675 
L 236.09704 -55.864709 
L 236.327362 -55.817817 
L 236.557684 -55.770998 
L 236.788005 -55.724253 
L 237.018327 -55.67758 
L 237.248649 -55.630979 
L 237.478971 -55.58445 
L 237.709293 -55.537993 
L 237.939615 -55.491606 
L 238.169936 -55.44529 
L 238.400258 -55.399044 
L 238.63058 -55.352868 
L 238.860902 -55.306761 
L 239.091224 -55.260722 
L 239.321545 -55.214752 
L 239.551867 -55.16885 
L 239.782189 -55.123016 
L 240.012511 -55.077248 
L 240.242833 -55.031547 
L 240.473155 -54.985913 
L 240.703476 -54.940344 
L 240.933798 -54.89484 
L 241.16412 -54.849402 
L 241.394442 -54.804027 
L 241.624764 -54.758717 
L 241.855085 -54.713471 
L 242.085407 -54.668287 
L 242.315729 -54.623167 
L 242.546051 -54.578108 
L 242.776373 -54.533112 
L 243.006695 -54.488177 
L 243.237016 -54.443303 
L 243.467338 -54.39849 
L 243.69766 -54.353737 
L 243.927982 -54.309043 
L 244.158304 -54.264409 
L 244.388625 -54.219834 
L 244.618947 -54.175317 
L 244.849269 -54.130858 
L 245.079591 -54.086457 
L 245.309913 -54.042113 
L 245.540235 -53.997825 
L 245.770556 -53.953594 
L 246.000878 -53.909419 
L 246.2312 -53.865299 
L 246.461522 -53.821234 
L 246.691844 -53.777224 
L 246.922165 -53.733268 
L 247.152487 -53.689365 
L 247.382809 -53.645516 
L 247.613131 -53.60172 
L 247.843453 -53.557976 
L 248.073775 -53.514284 
L 248.304096 -53.470643 
L 248.534418 -53.427054 
L 248.76474 -53.383515 
L 248.995062 -53.340026 
L 249.225384 -53.296588 
L 249.455705 -53.253199 
L 249.686027 -53.209858 
L 249.916349 -53.166566 
L 250.146671 -53.123323 
L 250.376993 -53.080127 
L 250.607315 -53.036978 
L 250.837636 -52.993876 
L 251.067958 -52.95082 
L 251.29828 -52.90781 
L 251.528602 -52.864846 
L 251.758924 -52.821927 
L 251.989245 -52.779052 
L 252.219567 -52.736222 
L 252.449889 -52.693435 
L 252.680211 -52.650692 
L 252.910533 -52.607992 
L 253.140855 -52.565334 
L 253.371176 -52.522718 
L 253.601498 -52.480144 
L 253.83182 -52.437611 
L 254.062142 -52.395119 
L 254.292464 -52.352667 
L 254.522785 -52.310255 
L 254.753107 -52.267882 
L 254.983429 -52.225549 
L 255.213751 -52.183254 
L 255.444073 -52.140997 
L 255.674395 -52.098778 
L 255.904716 -52.056597 
L 256.135038 -52.014452 
L 256.36536 -51.972343 
L 256.595682 -51.930271 
L 256.826004 -51.888234 
L 257.056325 -51.846233 
L 257.286647 -51.804266 
L 257.516969 -51.762333 
L 257.747291 -51.720434 
L 257.977613 -51.678569 
L 258.207935 -51.636737 
L 258.438256 -51.594937 
L 258.668578 -51.553169 
L 258.8989 -51.511433 
L 259.129222 -51.469729 
L 259.359544 -51.428055 
L 259.589865 -51.386411 
L 259.820187 -51.344798 
L 260.050509 -51.303214 
L 260.280831 -51.261659 
L 260.511153 -51.220133 
L 260.741475 -51.178635 
L 260.971796 -51.137165 
L 261.202118 -51.095723 
L 261.43244 -51.054307 
L 261.662762 -51.012918 
L 261.893084 -50.971555 
L 262.123405 -50.930217 
L 262.353727 -50.888905 
L 262.584049 -50.847618 
L 262.814371 -50.806355 
L 263.044693 -50.765116 
L 263.275015 -50.7239 
L 263.505336 -50.682708 
L 263.735658 -50.641538 
L 263.96598 -50.60039 
L 264.196302 -50.559265 
L 264.426624 -50.51816 
L 264.656945 -50.477077 
L 264.887267 -50.436014 
L 265.117589 -50.394971 
L 265.347911 -50.353947 
L 265.578233 -50.312943 
L 265.808555 -50.271958 
L 266.038876 -50.230991 
L 266.269198 -50.190041 
L 266.49952 -50.14911 
L 266.729842 -50.108195 
L 266.960164 -50.067297 
L 267.190485 -50.026415 
L 267.420807 -49.985549 
L 267.651129 -49.944698 
L 267.881451 -49.903862 
L 268.111773 -49.863041 
L 268.342095 -49.822233 
L 268.572416 -49.78144 
L 268.802738 -49.740659 
L 269.03306 -49.699891 
L 269.263382 -49.659135 
L 269.493704 -49.618391 
L 269.724025 -49.577659 
L 269.954347 -49.536938 
L 270.184669 -49.496227 
L 270.414991 -49.455526 
L 270.645313 -49.414835 
L 270.875635 -49.374154 
L 271.105956 -49.333481 
L 271.336278 -49.292816 
L 271.5666 -49.25216 
L 271.796922 -49.211511 
L 272.027244 -49.170869 
L 272.257565 -49.130234 
L 272.487887 -49.089606 
L 272.718209 -49.048983 
L 272.948531 -49.008365 
L 273.178853 -48.967752 
L 273.409175 -48.927144 
L 273.639496 -48.88654 
L 273.869818 -48.84594 
L 274.10014 -48.805343 
L 274.330462 -48.764749 
L 274.560784 -48.724157 
L 274.791105 -48.683567 
L 275.021427 -48.642979 
L 275.251749 -48.602392 
L 275.482071 -48.561805 
L 275.712393 -48.521218 
L 275.942715 -48.480632 
L 276.173036 -48.440045 
L 276.403358 -48.399456 
L 276.63368 -48.358866 
L 276.864002 -48.318275 
L 277.094324 -48.27768 
L 277.324645 -48.237084 
L 277.554967 -48.196483 
L 277.785289 -48.15588 
L 278.015611 -48.115272 
L 278.245933 -48.074659 
L 278.476255 -48.034042 
L 278.706576 -47.993419 
L 278.936898 -47.952791 
L 279.16722 -47.912156 
L 279.397542 -47.871514 
L 279.627864 -47.830866 
L 279.858185 -47.79021 
L 280.088507 -47.749545 
L 280.318829 -47.708873 
L 280.549151 -47.668192 
L 280.779473 -47.627501 
L 281.009795 -47.586801 
L 281.240116 -47.54609 
L 281.470438 -47.505369 
L 281.70076 -47.464637 
L 281.931082 -47.423894 
L 282.161404 -47.383139 
L 282.391725 -47.342371 
L 282.622047 -47.301591 
L 282.852369 -47.260798 
L 283.082691 -47.219991 
L 283.313013 -47.17917 
L 283.543335 -47.138334 
L 283.773656 -47.097484 
L 284.003978 -47.056618 
L 284.2343 -47.015737 
L 284.464622 -46.97484 
L 284.694944 -46.933926 
L 284.925265 -46.892995 
L 285.155587 -46.852046 
L 285.385909 -46.81108 
L 285.385909 -55.110793 
L 285.385909 -55.110793 
L 285.155587 -55.156639 
L 284.925265 -55.202444 
L 284.694944 -55.248208 
L 284.464622 -55.293933 
L 284.2343 -55.339618 
L 284.003978 -55.385264 
L 283.773656 -55.430872 
L 283.543335 -55.476443 
L 283.313013 -55.521976 
L 283.082691 -55.567472 
L 282.852369 -55.612932 
L 282.622047 -55.658356 
L 282.391725 -55.703746 
L 282.161404 -55.749101 
L 281.931082 -55.794422 
L 281.70076 -55.839709 
L 281.470438 -55.884964 
L 281.240116 -55.930186 
L 281.009795 -55.975376 
L 280.779473 -56.020535 
L 280.549151 -56.065663 
L 280.318829 -56.110761 
L 280.088507 -56.155829 
L 279.858185 -56.200868 
L 279.627864 -56.245878 
L 279.397542 -56.29086 
L 279.16722 -56.335814 
L 278.936898 -56.380742 
L 278.706576 -56.425643 
L 278.476255 -56.470518 
L 278.245933 -56.515368 
L 278.015611 -56.560192 
L 277.785289 -56.604993 
L 277.554967 -56.649769 
L 277.324645 -56.694523 
L 277.094324 -56.739253 
L 276.864002 -56.783961 
L 276.63368 -56.828648 
L 276.403358 -56.873314 
L 276.173036 -56.917958 
L 275.942715 -56.962583 
L 275.712393 -57.007189 
L 275.482071 -57.051775 
L 275.251749 -57.096343 
L 275.021427 -57.140893 
L 274.791105 -57.185425 
L 274.560784 -57.229941 
L 274.330462 -57.27444 
L 274.10014 -57.318924 
L 273.869818 -57.363392 
L 273.639496 -57.407846 
L 273.409175 -57.452285 
L 273.178853 -57.496711 
L 272.948531 -57.541124 
L 272.718209 -57.585524 
L 272.487887 -57.629912 
L 272.257565 -57.674289 
L 272.027244 -57.718655 
L 271.796922 -57.76301 
L 271.5666 -57.807355 
L 271.336278 -57.851692 
L 271.105956 -57.896019 
L 270.875635 -57.940338 
L 270.645313 -57.984649 
L 270.414991 -58.028953 
L 270.184669 -58.073251 
L 269.954347 -58.117542 
L 269.724025 -58.161828 
L 269.493704 -58.206109 
L 269.263382 -58.250385 
L 269.03306 -58.294657 
L 268.802738 -58.338926 
L 268.572416 -58.383192 
L 268.342095 -58.427455 
L 268.111773 -58.471717 
L 267.881451 -58.515977 
L 267.651129 -58.560237 
L 267.420807 -58.604496 
L 267.190485 -58.648756 
L 266.960164 -58.693016 
L 266.729842 -58.737278 
L 266.49952 -58.781542 
L 266.269198 -58.825808 
L 266.038876 -58.870078 
L 265.808555 -58.914351 
L 265.578233 -58.958627 
L 265.347911 -59.002909 
L 265.117589 -59.047196 
L 264.887267 -59.091488 
L 264.656945 -59.135787 
L 264.426624 -59.180092 
L 264.196302 -59.224404 
L 263.96598 -59.268725 
L 263.735658 -59.313054 
L 263.505336 -59.357391 
L 263.275015 -59.401738 
L 263.044693 -59.446095 
L 262.814371 -59.490463 
L 262.584049 -59.534842 
L 262.353727 -59.579232 
L 262.123405 -59.623634 
L 261.893084 -59.668049 
L 261.662762 -59.712477 
L 261.43244 -59.756919 
L 261.202118 -59.801375 
L 260.971796 -59.845846 
L 260.741475 -59.890332 
L 260.511153 -59.934834 
L 260.280831 -59.979353 
L 260.050509 -60.023888 
L 259.820187 -60.068441 
L 259.589865 -60.113012 
L 259.359544 -60.157602 
L 259.129222 -60.20221 
L 258.8989 -60.246838 
L 258.668578 -60.291487 
L 258.438256 -60.336156 
L 258.207935 -60.380846 
L 257.977613 -60.425558 
L 257.747291 -60.470292 
L 257.516969 -60.51505 
L 257.286647 -60.55983 
L 257.056325 -60.604635 
L 256.826004 -60.649464 
L 256.595682 -60.694317 
L 256.36536 -60.739197 
L 256.135038 -60.784102 
L 255.904716 -60.829034 
L 255.674395 -60.873994 
L 255.444073 -60.918981 
L 255.213751 -60.963996 
L 254.983429 -61.009039 
L 254.753107 -61.054113 
L 254.522785 -61.099215 
L 254.292464 -61.144349 
L 254.062142 -61.189513 
L 253.83182 -61.234708 
L 253.601498 -61.279936 
L 253.371176 -61.325196 
L 253.140855 -61.370489 
L 252.910533 -61.415816 
L 252.680211 -61.461176 
L 252.449889 -61.506572 
L 252.219567 -61.552002 
L 251.989245 -61.597468 
L 251.758924 -61.642971 
L 251.528602 -61.68851 
L 251.29828 -61.734087 
L 251.067958 -61.779701 
L 250.837636 -61.825354 
L 250.607315 -61.871046 
L 250.376993 -61.916777 
L 250.146671 -61.962548 
L 249.916349 -62.00836 
L 249.686027 -62.054213 
L 249.455705 -62.100107 
L 249.225384 -62.146044 
L 248.995062 -62.192023 
L 248.76474 -62.238046 
L 248.534418 -62.284112 
L 248.304096 -62.330223 
L 248.073775 -62.376378 
L 247.843453 -62.422579 
L 247.613131 -62.468826 
L 247.382809 -62.515119 
L 247.152487 -62.561459 
L 246.922165 -62.607846 
L 246.691844 -62.654282 
L 246.461522 -62.700766 
L 246.2312 -62.7473 
L 246.000878 -62.793883 
L 245.770556 -62.840516 
L 245.540235 -62.8872 
L 245.309913 -62.933935 
L 245.079591 -62.980722 
L 244.849269 -63.027561 
L 244.618947 -63.074454 
L 244.388625 -63.121399 
L 244.158304 -63.168399 
L 243.927982 -63.215453 
L 243.69766 -63.262562 
L 243.467338 -63.309726 
L 243.237016 -63.356947 
L 243.006695 -63.404225 
L 242.776373 -63.451559 
L 242.546051 -63.498951 
L 242.315729 -63.546402 
L 242.085407 -63.593911 
L 241.855085 -63.641479 
L 241.624764 -63.689108 
L 241.394442 -63.736797 
L 241.16412 -63.784546 
L 240.933798 -63.832357 
L 240.703476 -63.880231 
L 240.473155 -63.928166 
L 240.242833 -63.976165 
L 240.012511 -64.024227 
L 239.782189 -64.072354 
L 239.551867 -64.120545 
L 239.321545 -64.168801 
L 239.091224 -64.217123 
L 238.860902 -64.265512 
L 238.63058 -64.313967 
L 238.400258 -64.36249 
L 238.169936 -64.41108 
L 237.939615 -64.459739 
L 237.709293 -64.508467 
L 237.478971 -64.557264 
L 237.248649 -64.606131 
L 237.018327 -64.655069 
L 236.788005 -64.704078 
L 236.557684 -64.753159 
L 236.327362 -64.802312 
L 236.09704 -64.851538 
L 235.866718 -64.900837 
L 235.636396 -64.950209 
L 235.406075 -64.999656 
L 235.175753 -65.049178 
L 234.945431 -65.098775 
L 234.715109 -65.148449 
L 234.484787 -65.198198 
L 234.254465 -65.248025 
L 234.024144 -65.297929 
L 233.793822 -65.347911 
L 233.5635 -65.397972 
L 233.333178 -65.448112 
L 233.102856 -65.498332 
L 232.872535 -65.548632 
L 232.642213 -65.599013 
L 232.411891 -65.649475 
L 232.181569 -65.700019 
L 231.951247 -65.750645 
L 231.720925 -65.801354 
L 231.490604 -65.852147 
L 231.260282 -65.903024 
L 231.02996 -65.953985 
L 230.799638 -66.005031 
L 230.569316 -66.056163 
L 230.338995 -66.107381 
L 230.108673 -66.158685 
L 229.878351 -66.210077 
L 229.648029 -66.261556 
L 229.417707 -66.313124 
L 229.187385 -66.364781 
L 228.957064 -66.416527 
L 228.726742 -66.468363 
L 228.49642 -66.520289 
L 228.266098 -66.572306 
L 228.035776 -66.624415 
L 227.805455 -66.676615 
L 227.575133 -66.728909 
L 227.344811 -66.781295 
L 227.114489 -66.833775 
L 226.884167 -66.886349 
L 226.653845 -66.939018 
L 226.423524 -66.991782 
L 226.193202 -67.044642 
L 225.96288 -67.097598 
L 225.732558 -67.150651 
L 225.502236 -67.203802 
L 225.271915 -67.25705 
L 225.041593 -67.310397 
L 224.811271 -67.363843 
L 224.580949 -67.417388 
L 224.350627 -67.471034 
L 224.120305 -67.52478 
L 223.889984 -67.578627 
L 223.659662 -67.632576 
L 223.42934 -67.686627 
L 223.199018 -67.740781 
L 222.968696 -67.795038 
L 222.738375 -67.849399 
L 222.508053 -67.903865 
L 222.277731 -67.958435 
L 222.047409 -68.01311 
L 221.817087 -68.067892 
L 221.586765 -68.12278 
L 221.356444 -68.177776 
L 221.126122 -68.232878 
L 220.8958 -68.288089 
L 220.665478 -68.343409 
L 220.435156 -68.398838 
L 220.204835 -68.454376 
L 219.974513 -68.510025 
L 219.744191 -68.565784 
L 219.513869 -68.621655 
L 219.283547 -68.677638 
L 219.053225 -68.733733 
L 218.822904 -68.789941 
L 218.592582 -68.846263 
L 218.36226 -68.902698 
L 218.131938 -68.959249 
L 217.901616 -69.015914 
L 217.671295 -69.072695 
L 217.440973 -69.129592 
L 217.210651 -69.186605 
L 216.980329 -69.243736 
L 216.750007 -69.300985 
L 216.519685 -69.358352 
L 216.289364 -69.415838 
L 216.059042 -69.473443 
L 215.82872 -69.531169 
L 215.598398 -69.589014 
L 215.368076 -69.646981 
L 215.137755 -69.705069 
L 214.907433 -69.763279 
L 214.677111 -69.821612 
L 214.446789 -69.880068 
L 214.216467 -69.938648 
L 213.986145 -69.997351 
L 213.755824 -70.05618 
L 213.525502 -70.115134 
L 213.29518 -70.174214 
L 213.064858 -70.23342 
L 212.834536 -70.292752 
L 212.604215 -70.352213 
L 212.373893 -70.411801 
L 212.143571 -70.471518 
L 211.913249 -70.531364 
L 211.682927 -70.591339 
L 211.452605 -70.651445 
L 211.222284 -70.711681 
L 210.991962 -70.772048 
L 210.76164 -70.832547 
L 210.531318 -70.893178 
L 210.300996 -70.953943 
L 210.070675 -71.01484 
L 209.840353 -71.075871 
L 209.610031 -71.137037 
L 209.379709 -71.198338 
L 209.149387 -71.259774 
L 208.919065 -71.321346 
L 208.688744 -71.383054 
L 208.458422 -71.4449 
L 208.2281 -71.506883 
L 207.997778 -71.569005 
L 207.767456 -71.631265 
L 207.537135 -71.693664 
L 207.306813 -71.756204 
L 207.076491 -71.818883 
L 206.846169 -71.881703 
L 206.615847 -71.944665 
L 206.385525 -72.007768 
L 206.155204 -72.071014 
L 205.924882 -72.134403 
L 205.69456 -72.197936 
L 205.464238 -72.261612 
L 205.233916 -72.325434 
L 205.003595 -72.3894 
L 204.773273 -72.453512 
L 204.542951 -72.51777 
L 204.312629 -72.582175 
L 204.082307 -72.646727 
L 203.851985 -72.711427 
L 203.621664 -72.776275 
L 203.391342 -72.841272 
L 203.16102 -72.906419 
L 202.930698 -72.971715 
L 202.700376 -73.037162 
L 202.470055 -73.10276 
L 202.239733 -73.16851 
L 202.009411 -73.234412 
L 201.779089 -73.300466 
L 201.548767 -73.366673 
L 201.318445 -73.433035 
L 201.088124 -73.49955 
L 200.857802 -73.56622 
L 200.62748 -73.633046 
L 200.397158 -73.700027 
L 200.166836 -73.767165 
L 199.936515 -73.83446 
L 199.706193 -73.901912 
L 199.475871 -73.969522 
L 199.245549 -74.037291 
L 199.015227 -74.105218 
L 198.784905 -74.173306 
L 198.554584 -74.241553 
L 198.324262 -74.309961 
L 198.09394 -74.378531 
L 197.863618 -74.447262 
L 197.633296 -74.516155 
L 197.402975 -74.585211 
L 197.172653 -74.654431 
L 196.942331 -74.723815 
L 196.712009 -74.793363 
L 196.481687 -74.863075 
L 196.251365 -74.932954 
L 196.021044 -75.002998 
L 195.790722 -75.073209 
L 195.5604 -75.143587 
L 195.330078 -75.214133 
L 195.099756 -75.284847 
L 194.869435 -75.35573 
L 194.639113 -75.426782 
L 194.408791 -75.498004 
L 194.178469 -75.569396 
L 193.948147 -75.640959 
L 193.717825 -75.712693 
L 193.487504 -75.784599 
L 193.257182 -75.856678 
L 193.02686 -75.92893 
L 192.796538 -76.001355 
L 192.566216 -76.073955 
L 192.335895 -76.146729 
L 192.105573 -76.219678 
L 191.875251 -76.292803 
L 191.644929 -76.366104 
L 191.414607 -76.439582 
L 191.184285 -76.513237 
L 190.953964 -76.58707 
L 190.723642 -76.661082 
L 190.49332 -76.735272 
L 190.262998 -76.809642 
L 190.032676 -76.884192 
L 189.802355 -76.958922 
L 189.572033 -77.033833 
L 189.341711 -77.108926 
L 189.111389 -77.184201 
L 188.881067 -77.259659 
L 188.650745 -77.3353 
L 188.420424 -77.411125 
L 188.190102 -77.487134 
L 187.95978 -77.563328 
L 187.729458 -77.639707 
L 187.499136 -77.716272 
L 187.268815 -77.793023 
L 187.038493 -77.869962 
L 186.808171 -77.947088 
L 186.577849 -78.024402 
L 186.347527 -78.101904 
L 186.117205 -78.179596 
L 185.886884 -78.257477 
L 185.656562 -78.335548 
L 185.42624 -78.413811 
L 185.195918 -78.492264 
L 184.965596 -78.570909 
L 184.735275 -78.649747 
L 184.504953 -78.728777 
L 184.274631 -78.808001 
L 184.044309 -78.887418 
L 183.813987 -78.967031 
L 183.583665 -79.046838 
L 183.353344 -79.12684 
L 183.123022 -79.207039 
L 182.8927 -79.287435 
L 182.662378 -79.368027 
L 182.432056 -79.448817 
L 182.201735 -79.529806 
L 181.971413 -79.610993 
L 181.741091 -79.69238 
L 181.510769 -79.773966 
L 181.280447 -79.855753 
L 181.050125 -79.93774 
L 180.819804 -80.019929 
L 180.589482 -80.10232 
L 180.35916 -80.184914 
L 180.128838 -80.26771 
L 179.898516 -80.35071 
L 179.668195 -80.433915 
L 179.437873 -80.517324 
L 179.207551 -80.600938 
L 178.977229 -80.684758 
L 178.746907 -80.768784 
L 178.516585 -80.853017 
L 178.286264 -80.937457 
L 178.055942 -81.022105 
L 177.82562 -81.106962 
L 177.595298 -81.192027 
L 177.364976 -81.277302 
L 177.134655 -81.362787 
L 176.904333 -81.448483 
L 176.674011 -81.534389 
L 176.443689 -81.620508 
L 176.213367 -81.706838 
L 175.983045 -81.793381 
L 175.752724 -81.880138 
L 175.522402 -81.967108 
L 175.29208 -82.054292 
L 175.061758 -82.141692 
L 174.831436 -82.229307 
L 174.601115 -82.317137 
L 174.370793 -82.405184 
L 174.140471 -82.493448 
L 173.910149 -82.58193 
L 173.679827 -82.67063 
L 173.449505 -82.759548 
L 173.219184 -82.848685 
L 172.988862 -82.938043 
L 172.75854 -83.02762 
L 172.528218 -83.117418 
L 172.297896 -83.207437 
L 172.067575 -83.297678 
L 171.837253 -83.388142 
L 171.606931 -83.478828 
L 171.376609 -83.569738 
L 171.146287 -83.660872 
L 170.915965 -83.75223 
L 170.685644 -83.843814 
L 170.455322 -83.935623 
L 170.225 -84.027658 
L 169.994678 -84.119919 
L 169.764356 -84.212409 
L 169.534035 -84.305128 
L 169.303713 -84.398077 
L 169.073391 -84.491258 
L 168.843069 -84.584671 
L 168.612747 -84.678319 
L 168.382425 -84.772202 
L 168.152104 -84.866321 
L 167.921782 -84.960678 
L 167.69146 -85.055274 
L 167.461138 -85.15011 
L 167.230816 -85.245188 
L 167.000495 -85.340508 
L 166.770173 -85.436072 
L 166.539851 -85.531881 
L 166.309529 -85.627937 
L 166.079207 -85.72424 
L 165.848885 -85.820792 
L 165.618564 -85.917594 
L 165.388242 -86.014647 
L 165.15792 -86.111953 
L 164.927598 -86.209512 
L 164.697276 -86.307326 
L 164.466955 -86.405397 
L 164.236633 -86.503725 
L 164.006311 -86.602312 
L 163.775989 -86.701158 
L 163.545667 -86.800266 
L 163.315345 -86.899636 
L 163.085024 -86.999269 
L 162.854702 -87.099167 
L 162.62438 -87.199332 
L 162.394058 -87.299763 
L 162.163736 -87.400464 
L 161.933415 -87.501433 
L 161.703093 -87.602674 
L 161.472771 -87.704187 
L 161.242449 -87.805973 
L 161.012127 -87.908034 
L 160.781805 -88.010371 
L 160.551484 -88.112985 
L 160.321162 -88.215878 
L 160.09084 -88.31905 
L 159.860518 -88.422502 
L 159.630196 -88.526237 
L 159.399875 -88.630255 
L 159.169553 -88.734558 
L 158.939231 -88.839146 
L 158.708909 -88.944021 
L 158.478587 -89.049184 
L 158.248265 -89.154637 
L 158.017944 -89.26038 
L 157.787622 -89.366416 
L 157.5573 -89.472744 
L 157.326978 -89.579367 
L 157.096656 -89.686285 
L 156.866335 -89.7935 
L 156.636013 -89.901013 
L 156.405691 -90.008826 
L 156.175369 -90.116939 
L 155.945047 -90.225353 
L 155.714725 -90.334071 
L 155.484404 -90.443092 
L 155.254082 -90.55242 
L 155.02376 -90.662053 
L 154.793438 -90.771995 
L 154.563116 -90.882246 
L 154.332795 -90.992807 
L 154.102473 -91.10368 
L 153.872151 -91.214865 
L 153.641829 -91.326365 
L 153.411507 -91.438179 
L 153.181185 -91.550311 
L 152.950864 -91.66276 
L 152.720542 -91.775527 
L 152.49022 -91.888616 
L 152.259898 -92.002025 
L 152.029576 -92.115757 
L 151.799255 -92.229813 
L 151.568933 -92.344194 
L 151.338611 -92.458902 
L 151.108289 -92.573937 
L 150.877967 -92.689301 
L 150.647645 -92.804995 
L 150.417324 -92.92102 
L 150.187002 -93.037377 
L 149.95668 -93.154069 
L 149.726358 -93.271095 
L 149.496036 -93.388457 
L 149.265715 -93.506157 
L 149.035393 -93.624196 
L 148.805071 -93.742574 
L 148.574749 -93.861294 
L 148.344427 -93.980355 
L 148.114105 -94.099761 
L 147.883784 -94.219511 
L 147.653462 -94.339607 
L 147.42314 -94.460051 
L 147.192818 -94.580843 
L 146.962496 -94.701984 
L 146.732175 -94.823477 
L 146.501853 -94.945322 
L 146.271531 -95.06752 
L 146.041209 -95.190073 
L 145.810887 -95.312982 
L 145.580565 -95.436247 
L 145.350244 -95.559872 
L 145.119922 -95.683855 
L 144.8896 -95.8082 
L 144.659278 -95.932906 
L 144.428956 -96.057976 
L 144.198635 -96.183411 
L 143.968313 -96.309211 
L 143.737991 -96.435378 
L 143.507669 -96.561913 
L 143.277347 -96.688817 
L 143.047025 -96.816092 
L 142.816704 -96.94374 
L 142.586382 -97.07176 
L 142.35606 -97.200154 
L 142.125738 -97.328924 
L 141.895416 -97.458071 
L 141.665095 -97.587596 
L 141.434773 -97.7175 
L 141.204451 -97.847785 
L 140.974129 -97.978451 
L 140.743807 -98.109501 
L 140.513485 -98.240934 
L 140.283164 -98.372753 
L 140.052842 -98.504959 
L 139.82252 -98.637552 
L 139.592198 -98.770534 
L 139.361876 -98.903907 
L 139.131555 -99.037672 
L 138.901233 -99.171829 
L 138.670911 -99.30638 
L 138.440589 -99.441327 
L 138.210267 -99.57667 
L 137.979945 -99.71241 
L 137.749624 -99.84855 
L 137.519302 -99.98509 
L 137.28898 -100.122031 
L 137.058658 -100.259375 
L 136.828336 -100.397123 
L 136.598015 -100.535275 
L 136.367693 -100.673835 
L 136.137371 -100.812801 
L 135.907049 -100.952177 
L 135.676727 -101.091962 
L 135.446405 -101.232159 
L 135.216084 -101.372768 
L 134.985762 -101.513791 
L 134.75544 -101.655229 
L 134.525118 -101.797084 
L 134.294796 -101.939355 
L 134.064475 -102.082045 
L 133.834153 -102.225155 
L 133.603831 -102.368686 
L 133.373509 -102.51264 
L 133.143187 -102.657017 
L 132.912865 -102.801819 
L 132.682544 -102.947047 
L 132.452222 -103.092702 
L 132.2219 -103.238785 
L 131.991578 -103.385299 
L 131.761256 -103.532243 
L 131.530935 -103.679619 
L 131.300613 -103.827429 
L 131.070291 -103.975674 
L 130.839969 -104.124354 
L 130.609647 -104.273472 
L 130.379325 -104.423027 
L 130.149004 -104.573023 
L 129.918682 -104.723459 
L 129.68836 -104.874337 
L 129.458038 -105.025658 
L 129.227716 -105.177424 
L 128.997395 -105.329636 
L 128.767073 -105.482295 
L 128.536751 -105.635401 
L 128.306429 -105.788957 
L 128.076107 -105.942964 
L 127.845785 -106.097423 
L 127.615464 -106.252335 
L 127.385142 -106.407701 
L 127.15482 -106.563522 
L 126.924498 -106.719801 
L 126.694176 -106.876537 
L 126.463855 -107.033733 
L 126.233533 -107.191389 
L 126.003211 -107.349507 
L 125.772889 -107.508088 
L 125.542567 -107.667133 
L 125.312245 -107.826643 
L 125.081924 -107.98662 
L 124.851602 -108.147065 
L 124.62128 -108.307979 
L 124.390958 -108.469364 
L 124.160636 -108.63122 
L 123.930315 -108.793548 
L 123.699993 -108.956351 
L 123.469671 -109.119629 
L 123.239349 -109.283384 
L 123.009027 -109.447616 
L 122.778705 -109.612327 
L 122.548384 -109.777518 
L 122.318062 -109.943191 
L 122.08774 -110.109346 
L 121.857418 -110.275986 
L 121.627096 -110.44311 
L 121.396775 -110.610721 
L 121.166453 -110.778819 
L 120.936131 -110.947406 
L 120.705809 -111.116483 
L 120.475487 -111.286051 
L 120.245165 -111.456112 
L 120.014844 -111.626666 
L 119.784522 -111.797716 
L 119.5542 -111.969261 
L 119.323878 -112.141304 
L 119.093556 -112.313846 
L 118.863235 -112.486887 
L 118.632913 -112.66043 
L 118.402591 -112.834475 
L 118.172269 -113.009023 
L 117.941947 -113.184077 
L 117.711625 -113.359636 
L 117.481304 -113.535702 
L 117.250982 -113.712277 
L 117.02066 -113.889362 
L 116.790338 -114.066958 
L 116.560016 -114.245066 
L 116.329695 -114.423687 
L 116.099373 -114.602823 
L 115.869051 -114.782475 
L 115.638729 -114.962643 
L 115.408407 -115.143331 
L 115.178085 -115.324537 
L 114.947764 -115.506265 
L 114.717442 -115.688514 
L 114.48712 -115.871287 
L 114.256798 -116.054584 
L 114.026476 -116.238407 
L 113.796155 -116.422757 
L 113.565833 -116.607635 
L 113.335511 -116.793043 
L 113.105189 -116.978981 
L 112.874867 -117.165451 
L 112.644545 -117.352454 
L 112.414224 -117.539992 
L 112.183902 -117.728065 
L 111.95358 -117.916674 
L 111.723258 -118.105822 
L 111.492936 -118.295509 
L 111.262615 -118.485737 
L 111.032293 -118.676506 
L 110.801971 -118.867818 
L 110.571649 -119.059675 
L 110.341327 -119.252076 
L 110.111005 -119.445025 
L 109.880684 -119.638521 
L 109.650362 -119.832566 
L 109.42004 -120.027162 
L 109.189718 -120.222309 
L 108.959396 -120.418009 
L 108.729075 -120.614263 
L 108.498753 -120.811072 
L 108.268431 -121.008438 
L 108.038109 -121.206362 
L 107.807787 -121.404844 
L 107.577465 -121.603887 
L 107.347144 -121.803491 
L 107.116822 -122.003657 
L 106.8865 -122.204388 
L 106.656178 -122.405683 
L 106.425856 -122.607545 
L 106.195535 -122.809975 
L 105.965213 -123.012973 
L 105.734891 -123.216541 
L 105.504569 -123.420681 
L 105.274247 -123.625393 
L 105.043925 -123.830678 
L 104.813604 -124.036539 
L 104.583282 -124.242976 
L 104.35296 -124.44999 
L 104.122638 -124.657583 
L 103.892316 -124.865756 
L 103.661995 -125.07451 
L 103.431673 -125.283846 
L 103.201351 -125.493765 
L 102.971029 -125.70427 
L 102.740707 -125.91536 
L 102.510385 -126.127038 
L 102.280064 -126.339304 
L 102.049742 -126.55216 
L 101.81942 -126.765607 
L 101.589098 -126.979646 
L 101.358776 -127.194278 
L 101.128455 -127.409506 
L 100.898133 -127.625328 
L 100.667811 -127.841748 
L 100.437489 -128.058767 
L 100.207167 -128.276385 
L 99.976845 -128.494603 
L 99.746524 -128.713424 
L 99.516202 -128.932848 
L 99.28588 -129.152877 
L 99.055558 -129.373511 
L 98.825236 -129.594752 
L 98.594915 -129.816601 
L 98.364593 -130.03906 
L 98.134271 -130.262129 
L 97.903949 -130.48581 
L 97.673627 -130.710104 
L 97.443305 -130.935013 
L 97.212984 -131.160537 
L 96.982662 -131.386678 
L 96.75234 -131.613437 
L 96.522018 -131.840815 
L 96.291696 -132.068813 
L 96.061375 -132.297434 
L 95.831053 -132.526677 
L 95.600731 -132.756545 
L 95.370409 -132.987037 
L 95.140087 -133.218157 
L 94.909765 -133.449904 
L 94.679444 -133.682281 
L 94.449122 -133.915287 
L 94.2188 -134.148926 
L 93.988478 -134.383197 
L 93.758156 -134.618102 
L 93.527835 -134.853642 
L 93.297513 -135.089819 
L 93.067191 -135.326634 
L 92.836869 -135.564087 
L 92.606547 -135.802181 
L 92.376225 -136.040916 
L 92.145904 -136.280293 
L 91.915582 -136.520315 
L 91.68526 -136.760982 
L 91.454938 -137.002294 
L 91.224616 -137.244255 
L 90.994295 -137.486864 
L 90.763973 -137.730124 
L 90.533651 -137.974034 
L 90.303329 -138.218597 
L 90.073007 -138.463814 
L 89.842685 -138.709685 
L 89.612364 -138.956213 
L 89.382042 -139.203398 
L 89.15172 -139.451242 
L 88.921398 -139.699746 
L 88.691076 -139.948911 
L 88.460755 -140.198738 
L 88.230433 -140.449229 
L 88.000111 -140.700384 
L 87.769789 -140.952206 
L 87.539467 -141.204694 
L 87.309145 -141.457851 
L 87.078824 -141.711678 
L 86.848502 -141.966176 
L 86.61818 -142.221346 
L 86.387858 -142.47719 
L 86.157536 -142.733708 
L 85.927215 -142.990901 
L 85.696893 -143.248772 
L 85.466571 -143.507322 
L 85.236249 -143.766551 
L 85.005927 -144.02646 
L 84.775605 -144.287052 
L 84.545284 -144.548327 
L 84.314962 -144.810286 
L 84.08464 -145.072931 
L 83.854318 -145.336263 
L 83.623996 -145.600283 
L 83.393675 -145.864993 
L 83.163353 -146.130393 
L 82.933031 -146.396485 
L 82.702709 -146.66327 
L 82.472387 -146.93075 
L 82.242065 -147.198925 
L 82.011744 -147.467796 
L 81.781422 -147.737366 
L 81.5511 -148.007635 
L 81.320778 -148.278605 
L 81.090456 -148.550276 
L 80.860135 -148.82265 
L 80.629813 -149.095728 
L 80.399491 -149.369512 
L 80.169169 -149.644003 
L 79.938847 -149.919201 
L 79.708525 -150.195108 
L 79.478204 -150.471726 
L 79.247882 -150.749055 
L 79.01756 -151.027097 
L 78.787238 -151.305853 
L 78.556916 -151.585324 
L 78.326595 -151.865512 
L 78.096273 -152.146417 
L 77.865951 -152.428041 
L 77.635629 -152.710386 
L 77.405307 -152.993452 
L 77.174985 -153.27724 
L 76.944664 -153.561752 
L 76.714342 -153.84699 
L 76.48402 -154.132954 
L 76.253698 -154.419645 
L 76.023376 -154.707065 
L 75.793055 -154.995215 
L 75.562733 -155.284096 
L 75.332411 -155.57371 
L 75.102089 -155.864058 
L 74.871767 -156.15514 
L 74.641445 -156.446959 
L 74.411124 -156.739515 
L 74.180802 -157.032809 
L 73.95048 -157.326844 
L 73.720158 -157.621619 
L 73.489836 -157.917137 
L 73.259515 -158.213399 
L 73.029193 -158.510405 
L 72.798871 -158.808157 
L 72.568549 -159.106657 
L 72.338227 -159.405905 
L 72.107905 -159.705902 
L 71.877584 -160.006651 
L 71.647262 -160.308152 
L 71.41694 -160.610406 
L 71.186618 -160.913414 
L 70.956296 -161.217179 
L 70.725975 -161.521701 
L 70.495653 -161.826981 
L 70.265331 -162.13302 
L 70.035009 -162.439821 
L 69.804687 -162.747383 
L 69.574365 -163.055709 
L 69.344044 -163.364799 
L 69.113722 -163.674654 
L 68.8834 -163.985277 
L 68.653078 -164.296668 
L 68.422756 -164.608828 
L 68.192435 -164.921759 
L 67.962113 -165.235462 
L 67.731791 -165.549938 
L 67.501469 -165.865188 
L 67.271147 -166.181213 
L 67.040825 -166.498016 
L 66.810504 -166.815596 
L 66.580182 -167.133956 
L 66.34986 -167.453096 
L 66.119538 -167.773018 
L 65.889216 -168.093723 
L 65.658895 -168.415212 
L 65.428573 -168.737486 
L 65.198251 -169.060547 
L 64.967929 -169.384396 
L 64.737607 -169.709034 
L 64.507285 -170.034462 
L 64.276964 -170.360682 
L 64.046642 -170.687695 
L 63.81632 -171.015501 
L 63.585998 -171.344103 
L 63.355676 -171.673501 
L 63.125355 -172.003697 
L 62.895033 -172.334692 
L 62.664711 -172.666487 
L 62.434389 -172.999084 
L 62.204067 -173.332483 
L 61.973745 -173.666686 
L 61.743424 -174.001694 
L 61.513102 -174.337508 
L 61.28278 -174.67413 
L 61.052458 -175.011561 
L 60.822136 -175.349801 
L 60.591815 -175.688853 
L 60.361493 -176.028718 
L 60.131171 -176.369396 
L 59.900849 -176.710889 
L 59.670527 -177.053198 
L 59.440205 -177.396325 
L 59.209884 -177.74027 
L 58.979562 -178.085035 
L 58.74924 -178.430621 
L 58.518918 -178.777029 
L 58.288596 -179.124261 
L 58.058275 -179.472318 
L 57.827953 -179.821201 
L 57.597631 -180.170911 
L 57.367309 -180.521449 
L 57.136987 -180.872817 
L 56.906665 -181.225017 
L 56.676344 -181.578048 
L 56.446022 -181.931912 
L 56.2157 -182.286612 
L 55.985378 -182.642147 
L 55.755056 -182.998519 
L 55.524735 -183.35573 
L 55.294413 -183.71378 
L 55.064091 -184.07267 
z
" id="mb4443fbcbe"/>
    </defs>
    <g clip-path="url(#p85b6c7e0cf)">
     <use style="fill:#f6830f;fill-opacity:0.2;" x="0" xlink:href="#mb4443fbcbe" y="216"/>
    </g>
   </g>
   <g id="LineCollection_1">
    <path clip-path="url(#p85b6c7e0cf)" d="M 55.064091 48.049077 
L 55.064091 31.92733 
" style="fill:none;stroke:#f6830f;stroke-width:1.2;"/>
    <path clip-path="url(#p85b6c7e0cf)" d="M 112.644545 111.108151 
L 112.644545 98.647546 
" style="fill:none;stroke:#f6830f;stroke-width:1.2;"/>
    <path clip-path="url(#p85b6c7e0cf)" d="M 170.225 142.007501 
L 170.225 131.972342 
" style="fill:none;stroke:#f6830f;stroke-width:1.2;"/>
    <path clip-path="url(#p85b6c7e0cf)" d="M 230.108673 158.888872 
L 230.108673 149.841315 
" style="fill:none;stroke:#f6830f;stroke-width:1.2;"/>
    <path clip-path="url(#p85b6c7e0cf)" d="M 285.385909 169.18892 
L 285.385909 160.889207 
" style="fill:none;stroke:#f6830f;stroke-width:1.2;"/>
   </g>
   <g id="line2d_12">
    <defs>
     <path d="M 5 0 
L -5 -0 
" id="m7b6a55c155" style="stroke:#f6830f;"/>
    </defs>
    <g clip-path="url(#p85b6c7e0cf)">
     <use style="fill:#f6830f;stroke:#f6830f;" x="55.064091" xlink:href="#m7b6a55c155" y="48.049077"/>
     <use style="fill:#f6830f;stroke:#f6830f;" x="112.644545" xlink:href="#m7b6a55c155" y="111.108151"/>
     <use style="fill:#f6830f;stroke:#f6830f;" x="170.225" xlink:href="#m7b6a55c155" y="142.007501"/>
     <use style="fill:#f6830f;stroke:#f6830f;" x="230.108673" xlink:href="#m7b6a55c155" y="158.888872"/>
     <use style="fill:#f6830f;stroke:#f6830f;" x="285.385909" xlink:href="#m7b6a55c155" y="169.18892"/>
    </g>
   </g>
   <g id="line2d_13">
    <g clip-path="url(#p85b6c7e0cf)">
     <use style="fill:#f6830f;stroke:#f6830f;" x="55.064091" xlink:href="#m7b6a55c155" y="31.92733"/>
     <use style="fill:#f6830f;stroke:#f6830f;" x="112.644545" xlink:href="#m7b6a55c155" y="98.647546"/>
     <use style="fill:#f6830f;stroke:#f6830f;" x="170.225" xlink:href="#m7b6a55c155" y="131.972342"/>
     <use style="fill:#f6830f;stroke:#f6830f;" x="230.108673" xlink:href="#m7b6a55c155" y="149.841315"/>
     <use style="fill:#f6830f;stroke:#f6830f;" x="285.385909" xlink:href="#m7b6a55c155" y="160.889207"/>
    </g>
   </g>
   <g id="line2d_14">
    <defs>
     <path d="M -0 4.242641 
L 2.545584 0 
L 0 -4.242641 
L -2.545584 -0 
z
" id="mab32ae2454" style="stroke:#f6830f;stroke-linejoin:miter;"/>
    </defs>
    <g clip-path="url(#p85b6c7e0cf)">
     <use style="fill-opacity:0;stroke:#f6830f;stroke-linejoin:miter;" x="55.064091" xlink:href="#mab32ae2454" y="39.988203"/>
     <use style="fill-opacity:0;stroke:#f6830f;stroke-linejoin:miter;" x="112.644545" xlink:href="#mab32ae2454" y="104.877848"/>
     <use style="fill-opacity:0;stroke:#f6830f;stroke-linejoin:miter;" x="170.225" xlink:href="#mab32ae2454" y="136.989922"/>
     <use style="fill-opacity:0;stroke:#f6830f;stroke-linejoin:miter;" x="230.108673" xlink:href="#mab32ae2454" y="154.365094"/>
     <use style="fill-opacity:0;stroke:#f6830f;stroke-linejoin:miter;" x="285.385909" xlink:href="#mab32ae2454" y="165.039064"/>
    </g>
   </g>
   <g id="patch_2">
    <path d="M 43.548 176.052 
L 43.548 25.06425 
" style="fill:none;stroke:#ffffff;stroke-linecap:square;stroke-linejoin:miter;"/>
   </g>
   <g id="patch_3">
    <path d="M 296.902 176.052 
L 296.902 25.06425 
" style="fill:none;stroke:#ffffff;stroke-linecap:square;stroke-linejoin:miter;"/>
   </g>
   <g id="patch_4">
    <path d="M 43.548 176.052 
L 296.902 176.052 
" style="fill:none;stroke:#ffffff;stroke-linecap:square;stroke-linejoin:miter;"/>
   </g>
   <g id="patch_5">
    <path d="M 43.548 25.06425 
L 296.902 25.06425 
" style="fill:none;stroke:#ffffff;stroke-linecap:square;stroke-linejoin:miter;"/>
   </g>
   <g id="text_14">
    <!-- optode1 -->
    <g style="fill:#262626;" transform="translate(149.080906 19.06425)scale(0.117 -0.117)">
     <defs>
      <path d="M 6.59375 -19.875 
L 6.59375 51.859375 
L 14.59375 51.859375 
L 14.59375 45.125 
Q 17.4375 49.078125 21 51.046875 
Q 24.5625 53.03125 29.640625 53.03125 
Q 36.28125 53.03125 41.359375 49.609375 
Q 46.4375 46.1875 49.015625 39.953125 
Q 51.609375 33.734375 51.609375 26.3125 
Q 51.609375 18.359375 48.75 11.984375 
Q 45.90625 5.609375 40.453125 2.21875 
Q 35.015625 -1.171875 29 -1.171875 
Q 24.609375 -1.171875 21.109375 0.6875 
Q 17.625 2.546875 15.375 5.375 
L 15.375 -19.875 
z
M 14.546875 25.640625 
Q 14.546875 15.625 18.59375 10.84375 
Q 22.65625 6.0625 28.421875 6.0625 
Q 34.28125 6.0625 38.453125 11.015625 
Q 42.625 15.96875 42.625 26.375 
Q 42.625 36.28125 38.546875 41.203125 
Q 34.46875 46.140625 28.8125 46.140625 
Q 23.1875 46.140625 18.859375 40.890625 
Q 14.546875 35.640625 14.546875 25.640625 
z
" id="ArialMT-112"/>
      <path d="M 40.234375 0 
L 40.234375 6.546875 
Q 35.296875 -1.171875 25.734375 -1.171875 
Q 19.53125 -1.171875 14.328125 2.25 
Q 9.125 5.671875 6.265625 11.796875 
Q 3.421875 17.921875 3.421875 25.875 
Q 3.421875 33.640625 6 39.96875 
Q 8.59375 46.296875 13.765625 49.65625 
Q 18.953125 53.03125 25.34375 53.03125 
Q 30.03125 53.03125 33.6875 51.046875 
Q 37.359375 49.078125 39.65625 45.90625 
L 39.65625 71.578125 
L 48.390625 71.578125 
L 48.390625 0 
z
M 12.453125 25.875 
Q 12.453125 15.921875 16.640625 10.984375 
Q 20.84375 6.0625 26.5625 6.0625 
Q 32.328125 6.0625 36.34375 10.765625 
Q 40.375 15.484375 40.375 25.140625 
Q 40.375 35.796875 36.265625 40.765625 
Q 32.171875 45.75 26.171875 45.75 
Q 20.3125 45.75 16.375 40.96875 
Q 12.453125 36.1875 12.453125 25.875 
z
" id="ArialMT-100"/>
     </defs>
     <use xlink:href="#ArialMT-111"/>
     <use x="55.615234" xlink:href="#ArialMT-112"/>
     <use x="111.230469" xlink:href="#ArialMT-116"/>
     <use x="139.013672" xlink:href="#ArialMT-111"/>
     <use x="194.628906" xlink:href="#ArialMT-100"/>
     <use x="250.244141" xlink:href="#ArialMT-101"/>
     <use x="305.859375" xlink:href="#ArialMT-49"/>
    </g>
   </g>
   <g id="legend_1">
    <g id="patch_6">
     <path d="M 305.062 61.6509 
L 349.854 61.6509 
Q 351.614 61.6509 351.614 59.8909 
L 351.614 48.323025 
Q 351.614 46.563025 349.854 46.563025 
L 305.062 46.563025 
Q 303.302 46.563025 303.302 48.323025 
L 303.302 59.8909 
Q 303.302 61.6509 305.062 61.6509 
z
" style="fill:#464649;opacity:0.5;stroke:#464649;stroke-linejoin:miter;stroke-width:0.8;"/>
    </g>
    <g id="patch_7">
     <path d="M 303.062 59.6509 
L 347.854 59.6509 
Q 349.614 59.6509 349.614 57.8909 
L 349.614 46.323025 
Q 349.614 44.563025 347.854 44.563025 
L 303.062 44.563025 
Q 301.302 44.563025 301.302 46.323025 
L 301.302 57.8909 
Q 301.302 59.6509 303.062 59.6509 
z
" style="fill:#eaeaf2;stroke:#cccccc;stroke-linejoin:miter;stroke-width:0.8;"/>
    </g>
    <g id="LineCollection_2">
     <path d="M 313.622 55.7019 
L 313.622 46.9019 
" style="fill:none;stroke:#f6830f;stroke-width:1.2;"/>
    </g>
    <g id="line2d_15">
     <g>
      <use style="fill:#f6830f;stroke:#f6830f;" x="313.622" xlink:href="#m7b6a55c155" y="55.7019"/>
     </g>
    </g>
    <g id="line2d_16">
     <g>
      <use style="fill:#f6830f;stroke:#f6830f;" x="313.622" xlink:href="#m7b6a55c155" y="46.9019"/>
     </g>
    </g>
    <g id="line2d_17"/>
    <g id="line2d_18">
     <g>
      <use style="fill-opacity:0;stroke:#f6830f;stroke-linejoin:miter;" x="313.622" xlink:href="#mab32ae2454" y="51.3019"/>
     </g>
    </g>
    <g id="text_15">
     <!-- set2 -->
     <g style="fill:#262626;" transform="translate(329.462 54.3819)scale(0.088 -0.088)">
      <defs>
       <path d="M 3.078125 15.484375 
L 11.765625 16.84375 
Q 12.5 11.625 15.84375 8.84375 
Q 19.1875 6.0625 25.203125 6.0625 
Q 31.25 6.0625 34.171875 8.515625 
Q 37.109375 10.984375 37.109375 14.3125 
Q 37.109375 17.28125 34.515625 19 
Q 32.71875 20.171875 25.53125 21.96875 
Q 15.875 24.421875 12.140625 26.203125 
Q 8.40625 27.984375 6.46875 31.125 
Q 4.546875 34.28125 4.546875 38.09375 
Q 4.546875 41.546875 6.125 44.5 
Q 7.71875 47.46875 10.453125 49.421875 
Q 12.5 50.921875 16.03125 51.96875 
Q 19.578125 53.03125 23.640625 53.03125 
Q 29.734375 53.03125 34.34375 51.265625 
Q 38.96875 49.515625 41.15625 46.5 
Q 43.359375 43.5 44.1875 38.484375 
L 35.59375 37.3125 
Q 35.015625 41.3125 32.203125 43.546875 
Q 29.390625 45.796875 24.265625 45.796875 
Q 18.21875 45.796875 15.625 43.796875 
Q 13.03125 41.796875 13.03125 39.109375 
Q 13.03125 37.40625 14.109375 36.03125 
Q 15.1875 34.625 17.484375 33.6875 
Q 18.796875 33.203125 25.25 31.453125 
Q 34.578125 28.953125 38.25 27.359375 
Q 41.9375 25.78125 44.03125 22.75 
Q 46.140625 19.734375 46.140625 15.234375 
Q 46.140625 10.84375 43.578125 6.953125 
Q 41.015625 3.078125 36.171875 0.953125 
Q 31.34375 -1.171875 25.25 -1.171875 
Q 15.140625 -1.171875 9.84375 3.03125 
Q 4.546875 7.234375 3.078125 15.484375 
z
" id="ArialMT-115"/>
      </defs>
      <use xlink:href="#ArialMT-115"/>
      <use x="50" xlink:href="#ArialMT-101"/>
      <use x="105.615234" xlink:href="#ArialMT-116"/>
      <use x="133.398438" xlink:href="#ArialMT-50"/>
     </g>
    </g>
   </g>
  </g>
 </g>
 <defs>
  <clipPath id="p85b6c7e0cf">
   <rect height="150.98775" width="253.354" x="43.548" y="25.06425"/>
  </clipPath>
 </defs>
</svg>
