<?xml version="1.0" encoding="utf-8" standalone="no"?>
<!DOCTYPE svg PUBLIC "-//W3C//DTD SVG 1.1//EN"
  "http://www.w3.org/Graphics/SVG/1.1/DTD/svg11.dtd">
<!-- Created with matplotlib (https://matplotlib.org/) -->
<svg height="216pt" version="1.1" viewBox="0 0 360 216" width="360pt" xmlns="http://www.w3.org/2000/svg" xmlns:xlink="http://www.w3.org/1999/xlink">
 <metadata>
  <rdf:RDF xmlns:cc="http://creativecommons.org/ns#" xmlns:dc="http://purl.org/dc/elements/1.1/" xmlns:rdf="http://www.w3.org/1999/02/22-rdf-syntax-ns#">
   <cc:Work>
    <dc:type rdf:resource="http://purl.org/dc/dcmitype/StillImage"/>
    <dc:date>2021-05-31T12:49:39.953365</dc:date>
    <dc:format>image/svg+xml</dc:format>
    <dc:creator>
     <cc:Agent>
      <dc:title>Matplotlib v3.3.4, https://matplotlib.org/</dc:title>
     </cc:Agent>
    </dc:creator>
   </cc:Work>
  </rdf:RDF>
 </metadata>
 <defs>
  <style type="text/css">*{stroke-linecap:butt;stroke-linejoin:round;}</style>
 </defs>
 <g id="figure_1">
  <g id="axes_1">
   <g id="patch_1">
    <path d="M 36 172.8 
L 342 172.8 
L 342 21.6 
L 36 21.6 
z
" style="fill:#eaeaf2;"/>
   </g>
   <g id="matplotlib.axis_1">
    <g id="xtick_1">
     <g id="line2d_1">
      <path clip-path="url(#p6121729190)" d="M 49.909091 172.8 
L 49.909091 21.6 
" style="fill:none;stroke:#ffffff;stroke-linecap:round;stroke-width:0.8;"/>
     </g>
     <g id="text_1">
      <!-- 0 -->
      <g style="fill:#262626;" transform="translate(47.462278 187.398875)scale(0.088 -0.088)">
       <defs>
        <path d="M 4.15625 35.296875 
Q 4.15625 48 6.765625 55.734375 
Q 9.375 63.484375 14.515625 67.671875 
Q 19.671875 71.875 27.484375 71.875 
Q 33.25 71.875 37.59375 69.546875 
Q 41.9375 67.234375 44.765625 62.859375 
Q 47.609375 58.5 49.21875 52.21875 
Q 50.828125 45.953125 50.828125 35.296875 
Q 50.828125 22.703125 48.234375 14.96875 
Q 45.65625 7.234375 40.5 3 
Q 35.359375 -1.21875 27.484375 -1.21875 
Q 17.140625 -1.21875 11.234375 6.203125 
Q 4.15625 15.140625 4.15625 35.296875 
z
M 13.1875 35.296875 
Q 13.1875 17.671875 17.3125 11.828125 
Q 21.4375 6 27.484375 6 
Q 33.546875 6 37.671875 11.859375 
Q 41.796875 17.71875 41.796875 35.296875 
Q 41.796875 52.984375 37.671875 58.78125 
Q 33.546875 64.59375 27.390625 64.59375 
Q 21.34375 64.59375 17.71875 59.46875 
Q 13.1875 52.9375 13.1875 35.296875 
z
" id="ArialMT-48"/>
       </defs>
       <use xlink:href="#ArialMT-48"/>
      </g>
     </g>
    </g>
    <g id="xtick_2">
     <g id="line2d_2">
      <path clip-path="url(#p6121729190)" d="M 105.221908 172.8 
L 105.221908 21.6 
" style="fill:none;stroke:#ffffff;stroke-linecap:round;stroke-width:0.8;"/>
     </g>
     <g id="text_2">
      <!-- 20 -->
      <g style="fill:#262626;" transform="translate(100.328283 187.398875)scale(0.088 -0.088)">
       <defs>
        <path d="M 50.34375 8.453125 
L 50.34375 0 
L 3.03125 0 
Q 2.9375 3.171875 4.046875 6.109375 
Q 5.859375 10.9375 9.828125 15.625 
Q 13.8125 20.3125 21.34375 26.46875 
Q 33.015625 36.03125 37.109375 41.625 
Q 41.21875 47.21875 41.21875 52.203125 
Q 41.21875 57.421875 37.46875 61 
Q 33.734375 64.59375 27.734375 64.59375 
Q 21.390625 64.59375 17.578125 60.78125 
Q 13.765625 56.984375 13.71875 50.25 
L 4.6875 51.171875 
Q 5.609375 61.28125 11.65625 66.578125 
Q 17.71875 71.875 27.9375 71.875 
Q 38.234375 71.875 44.234375 66.15625 
Q 50.25 60.453125 50.25 52 
Q 50.25 47.703125 48.484375 43.546875 
Q 46.734375 39.40625 42.65625 34.8125 
Q 38.578125 30.21875 29.109375 22.21875 
Q 21.1875 15.578125 18.9375 13.203125 
Q 16.703125 10.84375 15.234375 8.453125 
z
" id="ArialMT-50"/>
       </defs>
       <use xlink:href="#ArialMT-50"/>
       <use x="55.615234" xlink:href="#ArialMT-48"/>
      </g>
     </g>
    </g>
    <g id="xtick_3">
     <g id="line2d_3">
      <path clip-path="url(#p6121729190)" d="M 160.534725 172.8 
L 160.534725 21.6 
" style="fill:none;stroke:#ffffff;stroke-linecap:round;stroke-width:0.8;"/>
     </g>
     <g id="text_3">
      <!-- 40 -->
      <g style="fill:#262626;" transform="translate(155.6411 187.398875)scale(0.088 -0.088)">
       <defs>
        <path d="M 32.328125 0 
L 32.328125 17.140625 
L 1.265625 17.140625 
L 1.265625 25.203125 
L 33.9375 71.578125 
L 41.109375 71.578125 
L 41.109375 25.203125 
L 50.78125 25.203125 
L 50.78125 17.140625 
L 41.109375 17.140625 
L 41.109375 0 
z
M 32.328125 25.203125 
L 32.328125 57.46875 
L 9.90625 25.203125 
z
" id="ArialMT-52"/>
       </defs>
       <use xlink:href="#ArialMT-52"/>
       <use x="55.615234" xlink:href="#ArialMT-48"/>
      </g>
     </g>
    </g>
    <g id="xtick_4">
     <g id="line2d_4">
      <path clip-path="url(#p6121729190)" d="M 215.847542 172.8 
L 215.847542 21.6 
" style="fill:none;stroke:#ffffff;stroke-linecap:round;stroke-width:0.8;"/>
     </g>
     <g id="text_4">
      <!-- 60 -->
      <g style="fill:#262626;" transform="translate(210.953917 187.398875)scale(0.088 -0.088)">
       <defs>
        <path d="M 49.75 54.046875 
L 41.015625 53.375 
Q 39.84375 58.546875 37.703125 60.890625 
Q 34.125 64.65625 28.90625 64.65625 
Q 24.703125 64.65625 21.53125 62.3125 
Q 17.390625 59.28125 14.984375 53.46875 
Q 12.59375 47.65625 12.5 36.921875 
Q 15.671875 41.75 20.265625 44.09375 
Q 24.859375 46.4375 29.890625 46.4375 
Q 38.671875 46.4375 44.84375 39.96875 
Q 51.03125 33.5 51.03125 23.25 
Q 51.03125 16.5 48.125 10.71875 
Q 45.21875 4.9375 40.140625 1.859375 
Q 35.0625 -1.21875 28.609375 -1.21875 
Q 17.625 -1.21875 10.6875 6.859375 
Q 3.765625 14.9375 3.765625 33.5 
Q 3.765625 54.25 11.421875 63.671875 
Q 18.109375 71.875 29.4375 71.875 
Q 37.890625 71.875 43.28125 67.140625 
Q 48.6875 62.40625 49.75 54.046875 
z
M 13.875 23.1875 
Q 13.875 18.65625 15.796875 14.5 
Q 17.71875 10.359375 21.1875 8.171875 
Q 24.65625 6 28.46875 6 
Q 34.03125 6 38.03125 10.484375 
Q 42.046875 14.984375 42.046875 22.703125 
Q 42.046875 30.125 38.078125 34.390625 
Q 34.125 38.671875 28.125 38.671875 
Q 22.171875 38.671875 18.015625 34.390625 
Q 13.875 30.125 13.875 23.1875 
z
" id="ArialMT-54"/>
       </defs>
       <use xlink:href="#ArialMT-54"/>
       <use x="55.615234" xlink:href="#ArialMT-48"/>
      </g>
     </g>
    </g>
    <g id="xtick_5">
     <g id="line2d_5">
      <path clip-path="url(#p6121729190)" d="M 271.16036 172.8 
L 271.16036 21.6 
" style="fill:none;stroke:#ffffff;stroke-linecap:round;stroke-width:0.8;"/>
     </g>
     <g id="text_5">
      <!-- 80 -->
      <g style="fill:#262626;" transform="translate(266.266735 187.398875)scale(0.088 -0.088)">
       <defs>
        <path d="M 17.671875 38.8125 
Q 12.203125 40.828125 9.5625 44.53125 
Q 6.9375 48.25 6.9375 53.421875 
Q 6.9375 61.234375 12.546875 66.546875 
Q 18.171875 71.875 27.484375 71.875 
Q 36.859375 71.875 42.578125 66.421875 
Q 48.296875 60.984375 48.296875 53.171875 
Q 48.296875 48.1875 45.671875 44.5 
Q 43.0625 40.828125 37.75 38.8125 
Q 44.34375 36.671875 47.78125 31.875 
Q 51.21875 27.09375 51.21875 20.453125 
Q 51.21875 11.28125 44.71875 5.03125 
Q 38.234375 -1.21875 27.640625 -1.21875 
Q 17.046875 -1.21875 10.546875 5.046875 
Q 4.046875 11.328125 4.046875 20.703125 
Q 4.046875 27.6875 7.59375 32.390625 
Q 11.140625 37.109375 17.671875 38.8125 
z
M 15.921875 53.71875 
Q 15.921875 48.640625 19.1875 45.40625 
Q 22.46875 42.1875 27.6875 42.1875 
Q 32.765625 42.1875 36.015625 45.375 
Q 39.265625 48.578125 39.265625 53.21875 
Q 39.265625 58.0625 35.90625 61.359375 
Q 32.5625 64.65625 27.59375 64.65625 
Q 22.5625 64.65625 19.234375 61.421875 
Q 15.921875 58.203125 15.921875 53.71875 
z
M 13.09375 20.65625 
Q 13.09375 16.890625 14.875 13.375 
Q 16.65625 9.859375 20.171875 7.921875 
Q 23.6875 6 27.734375 6 
Q 34.03125 6 38.125 10.046875 
Q 42.234375 14.109375 42.234375 20.359375 
Q 42.234375 26.703125 38.015625 30.859375 
Q 33.796875 35.015625 27.4375 35.015625 
Q 21.234375 35.015625 17.15625 30.90625 
Q 13.09375 26.8125 13.09375 20.65625 
z
" id="ArialMT-56"/>
       </defs>
       <use xlink:href="#ArialMT-56"/>
       <use x="55.615234" xlink:href="#ArialMT-48"/>
      </g>
     </g>
    </g>
    <g id="xtick_6">
     <g id="line2d_6">
      <path clip-path="url(#p6121729190)" d="M 326.473177 172.8 
L 326.473177 21.6 
" style="fill:none;stroke:#ffffff;stroke-linecap:round;stroke-width:0.8;"/>
     </g>
     <g id="text_6">
      <!-- 100 -->
      <g style="fill:#262626;" transform="translate(319.132739 187.398875)scale(0.088 -0.088)">
       <defs>
        <path d="M 37.25 0 
L 28.46875 0 
L 28.46875 56 
Q 25.296875 52.984375 20.140625 49.953125 
Q 14.984375 46.921875 10.890625 45.40625 
L 10.890625 53.90625 
Q 18.265625 57.375 23.78125 62.296875 
Q 29.296875 67.234375 31.59375 71.875 
L 37.25 71.875 
z
" id="ArialMT-49"/>
       </defs>
       <use xlink:href="#ArialMT-49"/>
       <use x="55.615234" xlink:href="#ArialMT-48"/>
       <use x="111.230469" xlink:href="#ArialMT-48"/>
      </g>
     </g>
    </g>
   </g>
   <g id="matplotlib.axis_2">
    <g id="ytick_1">
     <g id="line2d_7">
      <path clip-path="url(#p6121729190)" d="M 36 160.613664 
L 342 160.613664 
" style="fill:none;stroke:#ffffff;stroke-linecap:round;stroke-width:0.8;"/>
     </g>
     <g id="text_7">
      <!-- 1.0 -->
      <g style="fill:#262626;" transform="translate(15.468 163.763102)scale(0.088 -0.088)">
       <defs>
        <path d="M 9.078125 0 
L 9.078125 10.015625 
L 19.09375 10.015625 
L 19.09375 0 
z
" id="ArialMT-46"/>
       </defs>
       <use xlink:href="#ArialMT-49"/>
       <use x="55.615234" xlink:href="#ArialMT-46"/>
       <use x="83.398438" xlink:href="#ArialMT-48"/>
      </g>
     </g>
    </g>
    <g id="ytick_2">
     <g id="line2d_8">
      <path clip-path="url(#p6121729190)" d="M 36 138.079208 
L 342 138.079208 
" style="fill:none;stroke:#ffffff;stroke-linecap:round;stroke-width:0.8;"/>
     </g>
     <g id="text_8">
      <!-- 1.2 -->
      <g style="fill:#262626;" transform="translate(15.468 141.228645)scale(0.088 -0.088)">
       <use xlink:href="#ArialMT-49"/>
       <use x="55.615234" xlink:href="#ArialMT-46"/>
       <use x="83.398438" xlink:href="#ArialMT-50"/>
      </g>
     </g>
    </g>
    <g id="ytick_3">
     <g id="line2d_9">
      <path clip-path="url(#p6121729190)" d="M 36 115.544751 
L 342 115.544751 
" style="fill:none;stroke:#ffffff;stroke-linecap:round;stroke-width:0.8;"/>
     </g>
     <g id="text_9">
      <!-- 1.4 -->
      <g style="fill:#262626;" transform="translate(15.468 118.694188)scale(0.088 -0.088)">
       <use xlink:href="#ArialMT-49"/>
       <use x="55.615234" xlink:href="#ArialMT-46"/>
       <use x="83.398438" xlink:href="#ArialMT-52"/>
      </g>
     </g>
    </g>
    <g id="ytick_4">
     <g id="line2d_10">
      <path clip-path="url(#p6121729190)" d="M 36 93.010294 
L 342 93.010294 
" style="fill:none;stroke:#ffffff;stroke-linecap:round;stroke-width:0.8;"/>
     </g>
     <g id="text_10">
      <!-- 1.6 -->
      <g style="fill:#262626;" transform="translate(15.468 96.159732)scale(0.088 -0.088)">
       <use xlink:href="#ArialMT-49"/>
       <use x="55.615234" xlink:href="#ArialMT-46"/>
       <use x="83.398438" xlink:href="#ArialMT-54"/>
      </g>
     </g>
    </g>
    <g id="ytick_5">
     <g id="line2d_11">
      <path clip-path="url(#p6121729190)" d="M 36 70.475838 
L 342 70.475838 
" style="fill:none;stroke:#ffffff;stroke-linecap:round;stroke-width:0.8;"/>
     </g>
     <g id="text_11">
      <!-- 1.8 -->
      <g style="fill:#262626;" transform="translate(15.468 73.625275)scale(0.088 -0.088)">
       <use xlink:href="#ArialMT-49"/>
       <use x="55.615234" xlink:href="#ArialMT-46"/>
       <use x="83.398438" xlink:href="#ArialMT-56"/>
      </g>
     </g>
    </g>
    <g id="ytick_6">
     <g id="line2d_12">
      <path clip-path="url(#p6121729190)" d="M 36 47.941381 
L 342 47.941381 
" style="fill:none;stroke:#ffffff;stroke-linecap:round;stroke-width:0.8;"/>
     </g>
     <g id="text_12">
      <!-- 2.0 -->
      <g style="fill:#262626;" transform="translate(15.468 51.090819)scale(0.088 -0.088)">
       <use xlink:href="#ArialMT-50"/>
       <use x="55.615234" xlink:href="#ArialMT-46"/>
       <use x="83.398438" xlink:href="#ArialMT-48"/>
      </g>
     </g>
    </g>
    <g id="ytick_7">
     <g id="line2d_13">
      <path clip-path="url(#p6121729190)" d="M 36 25.406925 
L 342 25.406925 
" style="fill:none;stroke:#ffffff;stroke-linecap:round;stroke-width:0.8;"/>
     </g>
     <g id="text_13">
      <!-- 2.2 -->
      <g style="fill:#262626;" transform="translate(15.468 28.556362)scale(0.088 -0.088)">
       <use xlink:href="#ArialMT-50"/>
       <use x="55.615234" xlink:href="#ArialMT-46"/>
       <use x="83.398438" xlink:href="#ArialMT-50"/>
      </g>
     </g>
    </g>
   </g>
   <g id="PolyCollection_1">
    <defs>
     <path d="M 50.035448 -60.699944 
L 50.035448 -50.072727 
L 51.425321 -50.982977 
L 52.815194 -51.888483 
L 54.205066 -52.789266 
L 55.594939 -53.685346 
L 56.984812 -54.576746 
L 58.374684 -55.463486 
L 59.764557 -56.345588 
L 61.15443 -57.223072 
L 62.544302 -58.09596 
L 63.934175 -58.964273 
L 65.324048 -59.828032 
L 66.71392 -60.687259 
L 68.103793 -61.541974 
L 69.493666 -62.392199 
L 70.883538 -63.237955 
L 72.273411 -64.079262 
L 73.663284 -64.916143 
L 75.053156 -65.748618 
L 76.443029 -66.576709 
L 77.832902 -67.400437 
L 79.222774 -68.219822 
L 80.612647 -69.034886 
L 82.00252 -69.845651 
L 83.392392 -70.652137 
L 84.782265 -71.454365 
L 86.172138 -72.252357 
L 87.56201 -73.046134 
L 88.951883 -73.835718 
L 90.341756 -74.621128 
L 91.731628 -75.402387 
L 93.121501 -76.179515 
L 94.511374 -76.952534 
L 95.901246 -77.721465 
L 97.291119 -78.486329 
L 98.680992 -79.247147 
L 100.070864 -80.00394 
L 101.460737 -80.75673 
L 102.85061 -81.505538 
L 104.240482 -82.250385 
L 105.630355 -82.991292 
L 107.020228 -83.72828 
L 108.4101 -84.46137 
L 109.799973 -85.190585 
L 111.189846 -85.915943 
L 112.579718 -86.637468 
L 113.969591 -87.35518 
L 115.359464 -88.0691 
L 116.749336 -88.77925 
L 118.139209 -89.48565 
L 119.529082 -90.188322 
L 120.918954 -90.887286 
L 122.308827 -91.582565 
L 123.6987 -92.274179 
L 125.088572 -92.96215 
L 126.478445 -93.646498 
L 127.868318 -94.327245 
L 129.25819 -95.004412 
L 130.648063 -95.67802 
L 132.037936 -96.348091 
L 133.427808 -97.014644 
L 134.817681 -97.677703 
L 136.207554 -98.337287 
L 137.597426 -98.993418 
L 138.987299 -99.646117 
L 140.377172 -100.295406 
L 141.767044 -100.941305 
L 143.156917 -101.583836 
L 144.54679 -102.223019 
L 145.936662 -102.858877 
L 147.326535 -103.491429 
L 148.716408 -104.120698 
L 150.10628 -104.746705 
L 151.496153 -105.36947 
L 152.886026 -105.989015 
L 154.275898 -106.605361 
L 155.665771 -107.218529 
L 157.055643 -107.82854 
L 158.445516 -108.435416 
L 159.835389 -109.039177 
L 161.225261 -109.639846 
L 162.615134 -110.237442 
L 164.005007 -110.831987 
L 165.394879 -111.423503 
L 166.784752 -112.012011 
L 168.174625 -112.597531 
L 169.564497 -113.180084 
L 170.95437 -113.759693 
L 172.344243 -114.336378 
L 173.734115 -114.910161 
L 175.123988 -115.481062 
L 176.513861 -116.049102 
L 177.903733 -116.614304 
L 179.293606 -117.176687 
L 180.683479 -117.736274 
L 182.073351 -118.293085 
L 183.463224 -118.847142 
L 184.853097 -119.398465 
L 186.242969 -119.947076 
L 187.632842 -120.492996 
L 189.022715 -121.036247 
L 190.412587 -121.576849 
L 191.80246 -122.114823 
L 193.192333 -122.650188 
L 194.582205 -123.182962 
L 195.972078 -123.71316 
L 197.361951 -124.240798 
L 198.751823 -124.765894 
L 200.141696 -125.288464 
L 201.531569 -125.808524 
L 202.921441 -126.32609 
L 204.311314 -126.84118 
L 205.701187 -127.35381 
L 207.091059 -127.863995 
L 208.480932 -128.371753 
L 209.870805 -128.8771 
L 211.260677 -129.380053 
L 212.65055 -129.880628 
L 214.040423 -130.378841 
L 215.430295 -130.874709 
L 216.820168 -131.368248 
L 218.210041 -131.859476 
L 219.599913 -132.348407 
L 220.989786 -132.83506 
L 222.379659 -133.31945 
L 223.769531 -133.801593 
L 225.159404 -134.281507 
L 226.549277 -134.759207 
L 227.939149 -135.23471 
L 229.329022 -135.708033 
L 230.718895 -136.179193 
L 232.108767 -136.648204 
L 233.49864 -137.115085 
L 234.888513 -137.579851 
L 236.278385 -138.04252 
L 237.668258 -138.503106 
L 239.058131 -138.961628 
L 240.448003 -139.418101 
L 241.837876 -139.872541 
L 243.227749 -140.324966 
L 244.617621 -140.775392 
L 246.007494 -141.223835 
L 247.397367 -141.670312 
L 248.787239 -142.114839 
L 250.177112 -142.557433 
L 251.566985 -142.998109 
L 252.956857 -143.436886 
L 254.34673 -143.873778 
L 255.736603 -144.308803 
L 257.126475 -144.741977 
L 258.516348 -145.173316 
L 259.906221 -145.602837 
L 261.296093 -146.030557 
L 262.685966 -146.456492 
L 264.075839 -146.880658 
L 265.465711 -147.303071 
L 266.855584 -147.723749 
L 268.245457 -148.142708 
L 269.635329 -148.559964 
L 271.025202 -148.975534 
L 272.415075 -149.389434 
L 273.804947 -149.80168 
L 275.19482 -150.21229 
L 276.584693 -150.621279 
L 277.974565 -151.028664 
L 279.364438 -151.434462 
L 280.754311 -151.838688 
L 282.144183 -152.241361 
L 283.534056 -152.642495 
L 284.923929 -153.042107 
L 286.313801 -153.440214 
L 287.703674 -153.836833 
L 289.093547 -154.231979 
L 290.483419 -154.62567 
L 291.873292 -155.017921 
L 293.263165 -155.408749 
L 294.653037 -155.798172 
L 296.04291 -156.186204 
L 297.432783 -156.572863 
L 298.822655 -156.958165 
L 300.212528 -157.342126 
L 301.602401 -157.724764 
L 302.992273 -158.106094 
L 304.382146 -158.486133 
L 305.772018 -158.864897 
L 307.161891 -159.242404 
L 308.551764 -159.618668 
L 309.941636 -159.993708 
L 311.331509 -160.367538 
L 312.721382 -160.740177 
L 314.111254 -161.11164 
L 315.501127 -161.481943 
L 316.891 -161.851104 
L 318.280872 -162.219138 
L 319.670745 -162.586062 
L 321.060618 -162.951893 
L 322.45049 -163.316647 
L 323.840363 -163.680341 
L 325.230236 -164.04299 
L 326.620108 -164.404612 
L 328.009981 -164.765223 
L 328.009981 -187.527273 
L 328.009981 -187.527273 
L 326.620108 -187.137644 
L 325.230236 -186.746424 
L 323.840363 -186.353603 
L 322.45049 -185.959169 
L 321.060618 -185.563114 
L 319.670745 -185.165427 
L 318.280872 -184.766098 
L 316.891 -184.365117 
L 315.501127 -183.962474 
L 314.111254 -183.558159 
L 312.721382 -183.152161 
L 311.331509 -182.744472 
L 309.941636 -182.33508 
L 308.551764 -181.923975 
L 307.161891 -181.511148 
L 305.772018 -181.096589 
L 304.382146 -180.680287 
L 302.992273 -180.262232 
L 301.602401 -179.842415 
L 300.212528 -179.420825 
L 298.822655 -178.997452 
L 297.432783 -178.572285 
L 296.04291 -178.145316 
L 294.653037 -177.716534 
L 293.263165 -177.285929 
L 291.873292 -176.85349 
L 290.483419 -176.419208 
L 289.093547 -175.983073 
L 287.703674 -175.545074 
L 286.313801 -175.105202 
L 284.923929 -174.663446 
L 283.534056 -174.219797 
L 282.144183 -173.774244 
L 280.754311 -173.326777 
L 279.364438 -172.877386 
L 277.974565 -172.426062 
L 276.584693 -171.972793 
L 275.19482 -171.517571 
L 273.804947 -171.060384 
L 272.415075 -170.601223 
L 271.025202 -170.140078 
L 269.635329 -169.676938 
L 268.245457 -169.211794 
L 266.855584 -168.744636 
L 265.465711 -168.275453 
L 264.075839 -167.804235 
L 262.685966 -167.330973 
L 261.296093 -166.855656 
L 259.906221 -166.378274 
L 258.516348 -165.898818 
L 257.126475 -165.417276 
L 255.736603 -164.93364 
L 254.34673 -164.447898 
L 252.956857 -163.960041 
L 251.566985 -163.470059 
L 250.177112 -162.977942 
L 248.787239 -162.48368 
L 247.397367 -161.987262 
L 246.007494 -161.488678 
L 244.617621 -160.987919 
L 243.227749 -160.484974 
L 241.837876 -159.979834 
L 240.448003 -159.472488 
L 239.058131 -158.962926 
L 237.668258 -158.451138 
L 236.278385 -157.937114 
L 234.888513 -157.420844 
L 233.49864 -156.902318 
L 232.108767 -156.381526 
L 230.718895 -155.858458 
L 229.329022 -155.333103 
L 227.939149 -154.805452 
L 226.549277 -154.275494 
L 225.159404 -153.74322 
L 223.769531 -153.20862 
L 222.379659 -152.671682 
L 220.989786 -152.132398 
L 219.599913 -151.590758 
L 218.210041 -151.04675 
L 216.820168 -150.500365 
L 215.430295 -149.951594 
L 214.040423 -149.400425 
L 212.65055 -148.846849 
L 211.260677 -148.290856 
L 209.870805 -147.732436 
L 208.480932 -147.171578 
L 207.091059 -146.608273 
L 205.701187 -146.042511 
L 204.311314 -145.474281 
L 202.921441 -144.903573 
L 201.531569 -144.330378 
L 200.141696 -143.754685 
L 198.751823 -143.176484 
L 197.361951 -142.595765 
L 195.972078 -142.012519 
L 194.582205 -141.426734 
L 193.192333 -140.838401 
L 191.80246 -140.24751 
L 190.412587 -139.654051 
L 189.022715 -139.058 
L 187.632842 -138.459327 
L 186.242969 -137.857998 
L 184.853097 -137.253979 
L 183.463224 -136.647238 
L 182.073351 -136.037742 
L 180.683479 -135.425458 
L 179.293606 -134.810353 
L 177.903733 -134.192393 
L 176.513861 -133.571545 
L 175.123988 -132.947777 
L 173.734115 -132.321056 
L 172.344243 -131.691348 
L 170.95437 -131.058621 
L 169.564497 -130.422841 
L 168.174625 -129.783975 
L 166.784752 -129.14199 
L 165.394879 -128.496854 
L 164.005007 -127.848533 
L 162.615134 -127.196994 
L 161.225261 -126.542204 
L 159.835389 -125.884131 
L 158.445516 -125.22274 
L 157.055643 -124.558 
L 155.665771 -123.889876 
L 154.275898 -123.218336 
L 152.886026 -122.543347 
L 151.496153 -121.864876 
L 150.10628 -121.18289 
L 148.716408 -120.497355 
L 147.326535 -119.808239 
L 145.936662 -119.115509 
L 144.54679 -118.419132 
L 143.156917 -117.719074 
L 141.767044 -117.015302 
L 140.377172 -116.307784 
L 138.987299 -115.596486 
L 137.597426 -114.881376 
L 136.207554 -114.16242 
L 134.817681 -113.439586 
L 133.427808 -112.71284 
L 132.037936 -111.982149 
L 130.648063 -111.24748 
L 129.25819 -110.5088 
L 127.868318 -109.766077 
L 126.478445 -109.019276 
L 125.088572 -108.268366 
L 123.6987 -107.513312 
L 122.308827 -106.754083 
L 120.918954 -105.990644 
L 119.529082 -105.222963 
L 118.139209 -104.451007 
L 116.749336 -103.674743 
L 115.359464 -102.894137 
L 113.969591 -102.109158 
L 112.579718 -101.31977 
L 111.189846 -100.525943 
L 109.799973 -99.727642 
L 108.4101 -98.924834 
L 107.020228 -98.117487 
L 105.630355 -97.305567 
L 104.240482 -96.489042 
L 102.85061 -95.667878 
L 101.460737 -94.842043 
L 100.070864 -94.011502 
L 98.680992 -93.176224 
L 97.291119 -92.336175 
L 95.901246 -91.491322 
L 94.511374 -90.641632 
L 93.121501 -89.787073 
L 91.731628 -88.92761 
L 90.341756 -88.063211 
L 88.951883 -87.193843 
L 87.56201 -86.319473 
L 86.172138 -85.440068 
L 84.782265 -84.555595 
L 83.392392 -83.66602 
L 82.00252 -82.771311 
L 80.612647 -81.871435 
L 79.222774 -80.966359 
L 77.832902 -80.056049 
L 76.443029 -79.140472 
L 75.053156 -78.219596 
L 73.663284 -77.293388 
L 72.273411 -76.361813 
L 70.883538 -75.424841 
L 69.493666 -74.482436 
L 68.103793 -73.534567 
L 66.71392 -72.5812 
L 65.324048 -71.622302 
L 63.934175 -70.657841 
L 62.544302 -69.687782 
L 61.15443 -68.712094 
L 59.764557 -67.730743 
L 58.374684 -66.743695 
L 56.984812 -65.750919 
L 55.594939 -64.75238 
L 54.205066 -63.748047 
L 52.815194 -62.737885 
L 51.425321 -61.721862 
L 50.035448 -60.699944 
z
" id="m8413135177"/>
    </defs>
    <g clip-path="url(#p6121729190)">
     <use style="fill:#f6830f;fill-opacity:0.2;" x="0" xlink:href="#m8413135177" y="216"/>
    </g>
   </g>
   <g id="LineCollection_1">
    <path clip-path="url(#p6121729190)" d="M 50.021019 160.613664 
L 50.049877 160.613664 
" style="fill:none;stroke:#f6830f;stroke-width:1.2;"/>
    <path clip-path="url(#p6121729190)" d="M 117.666571 119.269027 
L 117.720197 119.269027 
" style="fill:none;stroke:#f6830f;stroke-width:1.2;"/>
    <path clip-path="url(#p6121729190)" d="M 191.080246 85.09523 
L 191.164959 85.09523 
" style="fill:none;stroke:#f6830f;stroke-width:1.2;"/>
    <path clip-path="url(#p6121729190)" d="M 261.659192 59.419136 
L 261.781512 59.419136 
" style="fill:none;stroke:#f6830f;stroke-width:1.2;"/>
    <path clip-path="url(#p6121729190)" d="M 327.929053 39.853752 
L 328.090909 39.853752 
" style="fill:none;stroke:#f6830f;stroke-width:1.2;"/>
   </g>
   <g id="line2d_14">
    <path clip-path="url(#p6121729190)" d="M 49.909091 160.613664 
L 59.588834 153.935784 
L 69.268577 147.531599 
L 78.94832 141.384622 
L 88.628063 135.479663 
L 99.690626 129.009554 
L 110.75319 122.81804 
L 121.815753 116.887507 
L 132.878317 111.201794 
L 143.94088 105.746048 
L 156.386264 99.86623 
L 168.831648 94.242314 
L 181.277032 88.857948 
L 193.722416 83.698147 
L 207.55062 78.211712 
L 221.378824 72.968264 
L 235.207028 67.952008 
L 250.418053 62.679323 
L 265.629078 57.64651 
L 280.840103 52.837566 
L 297.433948 47.82963 
L 314.027793 43.053461 
L 326.473177 39.613917 
L 326.473177 39.613917 
" style="fill:none;stroke:#f6830f;stroke-dasharray:6.4,1.6,1,1.6;stroke-dashoffset:0;"/>
   </g>
   <g id="line2d_15">
    <defs>
     <path d="M 0 6 
L 0 -6 
" id="m662e6b2d04" style="stroke:#f6830f;"/>
    </defs>
    <g clip-path="url(#p6121729190)">
     <use style="fill:#f6830f;stroke:#f6830f;" x="50.021019" xlink:href="#m662e6b2d04" y="160.613664"/>
     <use style="fill:#f6830f;stroke:#f6830f;" x="117.666571" xlink:href="#m662e6b2d04" y="119.269027"/>
     <use style="fill:#f6830f;stroke:#f6830f;" x="191.080246" xlink:href="#m662e6b2d04" y="85.09523"/>
     <use style="fill:#f6830f;stroke:#f6830f;" x="261.659192" xlink:href="#m662e6b2d04" y="59.419136"/>
     <use style="fill:#f6830f;stroke:#f6830f;" x="327.929053" xlink:href="#m662e6b2d04" y="39.853752"/>
    </g>
   </g>
   <g id="line2d_16">
    <g clip-path="url(#p6121729190)">
     <use style="fill:#f6830f;stroke:#f6830f;" x="50.049877" xlink:href="#m662e6b2d04" y="160.613664"/>
     <use style="fill:#f6830f;stroke:#f6830f;" x="117.720197" xlink:href="#m662e6b2d04" y="119.269027"/>
     <use style="fill:#f6830f;stroke:#f6830f;" x="191.164959" xlink:href="#m662e6b2d04" y="85.09523"/>
     <use style="fill:#f6830f;stroke:#f6830f;" x="261.781512" xlink:href="#m662e6b2d04" y="59.419136"/>
     <use style="fill:#f6830f;stroke:#f6830f;" x="328.090909" xlink:href="#m662e6b2d04" y="39.853752"/>
    </g>
   </g>
   <g id="line2d_17">
    <defs>
     <path d="M 0 3 
C 0.795609 3 1.55874 2.683901 2.12132 2.12132 
C 2.683901 1.55874 3 0.795609 3 0 
C 3 -0.795609 2.683901 -1.55874 2.12132 -2.12132 
C 1.55874 -2.683901 0.795609 -3 0 -3 
C -0.795609 -3 -1.55874 -2.683901 -2.12132 -2.12132 
C -2.683901 -1.55874 -3 -0.795609 -3 0 
C -3 0.795609 -2.683901 1.55874 -2.12132 2.12132 
C -1.55874 2.683901 -0.795609 3 0 3 
z
" id="m0e580142af" style="stroke:#f6830f;"/>
    </defs>
    <g clip-path="url(#p6121729190)">
     <use style="fill-opacity:0;stroke:#f6830f;" x="50.035448" xlink:href="#m0e580142af" y="160.613664"/>
     <use style="fill-opacity:0;stroke:#f6830f;" x="117.693384" xlink:href="#m0e580142af" y="119.269027"/>
     <use style="fill-opacity:0;stroke:#f6830f;" x="191.122602" xlink:href="#m0e580142af" y="85.09523"/>
     <use style="fill-opacity:0;stroke:#f6830f;" x="261.720352" xlink:href="#m0e580142af" y="59.419136"/>
     <use style="fill-opacity:0;stroke:#f6830f;" x="328.009981" xlink:href="#m0e580142af" y="39.853752"/>
    </g>
   </g>
   <g id="patch_2">
    <path d="M 36 172.8 
L 36 21.6 
" style="fill:none;stroke:#ffffff;stroke-linecap:square;stroke-linejoin:miter;"/>
   </g>
   <g id="patch_3">
    <path d="M 342 172.8 
L 342 21.6 
" style="fill:none;stroke:#ffffff;stroke-linecap:square;stroke-linejoin:miter;"/>
   </g>
   <g id="patch_4">
    <path d="M 36 172.8 
L 342 172.8 
" style="fill:none;stroke:#ffffff;stroke-linecap:square;stroke-linejoin:miter;"/>
   </g>
   <g id="patch_5">
    <path d="M 36 21.6 
L 342 21.6 
" style="fill:none;stroke:#ffffff;stroke-linecap:square;stroke-linejoin:miter;"/>
   </g>
   <g id="text_14">
    <!-- optode1 - set2 -->
    <g style="fill:#262626;" transform="translate(36 15.6)scale(0.117 -0.117)">
     <defs>
      <path d="M 3.328125 25.921875 
Q 3.328125 40.328125 11.328125 47.265625 
Q 18.015625 53.03125 27.640625 53.03125 
Q 38.328125 53.03125 45.109375 46.015625 
Q 51.90625 39.015625 51.90625 26.65625 
Q 51.90625 16.65625 48.90625 10.90625 
Q 45.90625 5.171875 40.15625 2 
Q 34.421875 -1.171875 27.640625 -1.171875 
Q 16.75 -1.171875 10.03125 5.8125 
Q 3.328125 12.796875 3.328125 25.921875 
z
M 12.359375 25.921875 
Q 12.359375 15.96875 16.703125 11.015625 
Q 21.046875 6.0625 27.640625 6.0625 
Q 34.1875 6.0625 38.53125 11.03125 
Q 42.875 16.015625 42.875 26.21875 
Q 42.875 35.84375 38.5 40.796875 
Q 34.125 45.75 27.640625 45.75 
Q 21.046875 45.75 16.703125 40.8125 
Q 12.359375 35.890625 12.359375 25.921875 
z
" id="ArialMT-111"/>
      <path d="M 6.59375 -19.875 
L 6.59375 51.859375 
L 14.59375 51.859375 
L 14.59375 45.125 
Q 17.4375 49.078125 21 51.046875 
Q 24.5625 53.03125 29.640625 53.03125 
Q 36.28125 53.03125 41.359375 49.609375 
Q 46.4375 46.1875 49.015625 39.953125 
Q 51.609375 33.734375 51.609375 26.3125 
Q 51.609375 18.359375 48.75 11.984375 
Q 45.90625 5.609375 40.453125 2.21875 
Q 35.015625 -1.171875 29 -1.171875 
Q 24.609375 -1.171875 21.109375 0.6875 
Q 17.625 2.546875 15.375 5.375 
L 15.375 -19.875 
z
M 14.546875 25.640625 
Q 14.546875 15.625 18.59375 10.84375 
Q 22.65625 6.0625 28.421875 6.0625 
Q 34.28125 6.0625 38.453125 11.015625 
Q 42.625 15.96875 42.625 26.375 
Q 42.625 36.28125 38.546875 41.203125 
Q 34.46875 46.140625 28.8125 46.140625 
Q 23.1875 46.140625 18.859375 40.890625 
Q 14.546875 35.640625 14.546875 25.640625 
z
" id="ArialMT-112"/>
      <path d="M 25.78125 7.859375 
L 27.046875 0.09375 
Q 23.34375 -0.6875 20.40625 -0.6875 
Q 15.625 -0.6875 12.984375 0.828125 
Q 10.359375 2.34375 9.28125 4.8125 
Q 8.203125 7.28125 8.203125 15.1875 
L 8.203125 45.015625 
L 1.765625 45.015625 
L 1.765625 51.859375 
L 8.203125 51.859375 
L 8.203125 64.703125 
L 16.9375 69.96875 
L 16.9375 51.859375 
L 25.78125 51.859375 
L 25.78125 45.015625 
L 16.9375 45.015625 
L 16.9375 14.703125 
Q 16.9375 10.9375 17.40625 9.859375 
Q 17.875 8.796875 18.921875 8.15625 
Q 19.96875 7.515625 21.921875 7.515625 
Q 23.390625 7.515625 25.78125 7.859375 
z
" id="ArialMT-116"/>
      <path d="M 40.234375 0 
L 40.234375 6.546875 
Q 35.296875 -1.171875 25.734375 -1.171875 
Q 19.53125 -1.171875 14.328125 2.25 
Q 9.125 5.671875 6.265625 11.796875 
Q 3.421875 17.921875 3.421875 25.875 
Q 3.421875 33.640625 6 39.96875 
Q 8.59375 46.296875 13.765625 49.65625 
Q 18.953125 53.03125 25.34375 53.03125 
Q 30.03125 53.03125 33.6875 51.046875 
Q 37.359375 49.078125 39.65625 45.90625 
L 39.65625 71.578125 
L 48.390625 71.578125 
L 48.390625 0 
z
M 12.453125 25.875 
Q 12.453125 15.921875 16.640625 10.984375 
Q 20.84375 6.0625 26.5625 6.0625 
Q 32.328125 6.0625 36.34375 10.765625 
Q 40.375 15.484375 40.375 25.140625 
Q 40.375 35.796875 36.265625 40.765625 
Q 32.171875 45.75 26.171875 45.75 
Q 20.3125 45.75 16.375 40.96875 
Q 12.453125 36.1875 12.453125 25.875 
z
" id="ArialMT-100"/>
      <path d="M 42.09375 16.703125 
L 51.171875 15.578125 
Q 49.03125 7.625 43.21875 3.21875 
Q 37.40625 -1.171875 28.375 -1.171875 
Q 17 -1.171875 10.328125 5.828125 
Q 3.65625 12.84375 3.65625 25.484375 
Q 3.65625 38.578125 10.390625 45.796875 
Q 17.140625 53.03125 27.875 53.03125 
Q 38.28125 53.03125 44.875 45.953125 
Q 51.46875 38.875 51.46875 26.03125 
Q 51.46875 25.25 51.421875 23.6875 
L 12.75 23.6875 
Q 13.234375 15.140625 17.578125 10.59375 
Q 21.921875 6.0625 28.421875 6.0625 
Q 33.25 6.0625 36.671875 8.59375 
Q 40.09375 11.140625 42.09375 16.703125 
z
M 13.234375 30.90625 
L 42.1875 30.90625 
Q 41.609375 37.453125 38.875 40.71875 
Q 34.671875 45.796875 27.984375 45.796875 
Q 21.921875 45.796875 17.796875 41.75 
Q 13.671875 37.703125 13.234375 30.90625 
z
" id="ArialMT-101"/>
      <path id="ArialMT-32"/>
      <path d="M 3.171875 21.484375 
L 3.171875 30.328125 
L 30.171875 30.328125 
L 30.171875 21.484375 
z
" id="ArialMT-45"/>
      <path d="M 3.078125 15.484375 
L 11.765625 16.84375 
Q 12.5 11.625 15.84375 8.84375 
Q 19.1875 6.0625 25.203125 6.0625 
Q 31.25 6.0625 34.171875 8.515625 
Q 37.109375 10.984375 37.109375 14.3125 
Q 37.109375 17.28125 34.515625 19 
Q 32.71875 20.171875 25.53125 21.96875 
Q 15.875 24.421875 12.140625 26.203125 
Q 8.40625 27.984375 6.46875 31.125 
Q 4.546875 34.28125 4.546875 38.09375 
Q 4.546875 41.546875 6.125 44.5 
Q 7.71875 47.46875 10.453125 49.421875 
Q 12.5 50.921875 16.03125 51.96875 
Q 19.578125 53.03125 23.640625 53.03125 
Q 29.734375 53.03125 34.34375 51.265625 
Q 38.96875 49.515625 41.15625 46.5 
Q 43.359375 43.5 44.1875 38.484375 
L 35.59375 37.3125 
Q 35.015625 41.3125 32.203125 43.546875 
Q 29.390625 45.796875 24.265625 45.796875 
Q 18.21875 45.796875 15.625 43.796875 
Q 13.03125 41.796875 13.03125 39.109375 
Q 13.03125 37.40625 14.109375 36.03125 
Q 15.1875 34.625 17.484375 33.6875 
Q 18.796875 33.203125 25.25 31.453125 
Q 34.578125 28.953125 38.25 27.359375 
Q 41.9375 25.78125 44.03125 22.75 
Q 46.140625 19.734375 46.140625 15.234375 
Q 46.140625 10.84375 43.578125 6.953125 
Q 41.015625 3.078125 36.171875 0.953125 
Q 31.34375 -1.171875 25.25 -1.171875 
Q 15.140625 -1.171875 9.84375 3.03125 
Q 4.546875 7.234375 3.078125 15.484375 
z
" id="ArialMT-115"/>
     </defs>
     <use xlink:href="#ArialMT-111"/>
     <use x="55.615234" xlink:href="#ArialMT-112"/>
     <use x="111.230469" xlink:href="#ArialMT-116"/>
     <use x="139.013672" xlink:href="#ArialMT-111"/>
     <use x="194.628906" xlink:href="#ArialMT-100"/>
     <use x="250.244141" xlink:href="#ArialMT-101"/>
     <use x="305.859375" xlink:href="#ArialMT-49"/>
     <use x="361.474609" xlink:href="#ArialMT-32"/>
     <use x="389.257812" xlink:href="#ArialMT-45"/>
     <use x="422.558594" xlink:href="#ArialMT-32"/>
     <use x="450.341797" xlink:href="#ArialMT-115"/>
     <use x="500.341797" xlink:href="#ArialMT-101"/>
     <use x="555.957031" xlink:href="#ArialMT-116"/>
     <use x="583.740234" xlink:href="#ArialMT-50"/>
    </g>
   </g>
  </g>
  <g id="text_15">
   <!-- O$_2$ concentration [%air] -->
   <g style="fill:#262626;" transform="translate(112.53 210.805)scale(0.13 -0.13)">
    <defs>
     <path d="M 4.828125 34.859375 
Q 4.828125 52.6875 14.390625 62.765625 
Q 23.96875 72.859375 39.109375 72.859375 
Q 49.03125 72.859375 56.984375 68.109375 
Q 64.9375 63.375 69.109375 54.90625 
Q 73.296875 46.4375 73.296875 35.6875 
Q 73.296875 24.8125 68.890625 16.21875 
Q 64.5 7.625 56.4375 3.203125 
Q 48.390625 -1.21875 39.0625 -1.21875 
Q 28.953125 -1.21875 20.984375 3.65625 
Q 13.03125 8.546875 8.921875 16.984375 
Q 4.828125 25.4375 4.828125 34.859375 
z
M 14.59375 34.71875 
Q 14.59375 21.78125 21.546875 14.328125 
Q 28.515625 6.890625 39.015625 6.890625 
Q 49.703125 6.890625 56.609375 14.40625 
Q 63.53125 21.921875 63.53125 35.75 
Q 63.53125 44.484375 60.578125 51 
Q 57.625 57.515625 51.921875 61.109375 
Q 46.234375 64.703125 39.15625 64.703125 
Q 29.109375 64.703125 21.84375 57.78125 
Q 14.59375 50.875 14.59375 34.71875 
z
" id="ArialMT-79"/>
     <path d="M 19.1875 8.296875 
L 53.609375 8.296875 
L 53.609375 0 
L 7.328125 0 
L 7.328125 8.296875 
Q 12.9375 14.109375 22.625 23.890625 
Q 32.328125 33.6875 34.8125 36.53125 
Q 39.546875 41.84375 41.421875 45.53125 
Q 43.3125 49.21875 43.3125 52.78125 
Q 43.3125 58.59375 39.234375 62.25 
Q 35.15625 65.921875 28.609375 65.921875 
Q 23.96875 65.921875 18.8125 64.3125 
Q 13.671875 62.703125 7.8125 59.421875 
L 7.8125 69.390625 
Q 13.765625 71.78125 18.9375 73 
Q 24.125 74.21875 28.421875 74.21875 
Q 39.75 74.21875 46.484375 68.546875 
Q 53.21875 62.890625 53.21875 53.421875 
Q 53.21875 48.921875 51.53125 44.890625 
Q 49.859375 40.875 45.40625 35.40625 
Q 44.1875 33.984375 37.640625 27.21875 
Q 31.109375 20.453125 19.1875 8.296875 
z
" id="DejaVuSans-50"/>
     <path d="M 40.4375 19 
L 49.078125 17.875 
Q 47.65625 8.9375 41.8125 3.875 
Q 35.984375 -1.171875 27.484375 -1.171875 
Q 16.84375 -1.171875 10.375 5.78125 
Q 3.90625 12.75 3.90625 25.734375 
Q 3.90625 34.125 6.6875 40.421875 
Q 9.46875 46.734375 15.15625 49.875 
Q 20.84375 53.03125 27.546875 53.03125 
Q 35.984375 53.03125 41.359375 48.75 
Q 46.734375 44.484375 48.25 36.625 
L 39.703125 35.296875 
Q 38.484375 40.53125 35.375 43.15625 
Q 32.28125 45.796875 27.875 45.796875 
Q 21.234375 45.796875 17.078125 41.03125 
Q 12.9375 36.28125 12.9375 25.984375 
Q 12.9375 15.53125 16.9375 10.796875 
Q 20.953125 6.0625 27.390625 6.0625 
Q 32.5625 6.0625 36.03125 9.234375 
Q 39.5 12.40625 40.4375 19 
z
" id="ArialMT-99"/>
     <path d="M 6.59375 0 
L 6.59375 51.859375 
L 14.5 51.859375 
L 14.5 44.484375 
Q 20.21875 53.03125 31 53.03125 
Q 35.6875 53.03125 39.625 51.34375 
Q 43.5625 49.65625 45.515625 46.921875 
Q 47.46875 44.1875 48.25 40.4375 
Q 48.734375 37.984375 48.734375 31.890625 
L 48.734375 0 
L 39.9375 0 
L 39.9375 31.546875 
Q 39.9375 36.921875 38.90625 39.578125 
Q 37.890625 42.234375 35.28125 43.8125 
Q 32.671875 45.40625 29.15625 45.40625 
Q 23.53125 45.40625 19.453125 41.84375 
Q 15.375 38.28125 15.375 28.328125 
L 15.375 0 
z
" id="ArialMT-110"/>
     <path d="M 6.5 0 
L 6.5 51.859375 
L 14.40625 51.859375 
L 14.40625 44 
Q 17.4375 49.515625 20 51.265625 
Q 22.5625 53.03125 25.640625 53.03125 
Q 30.078125 53.03125 34.671875 50.203125 
L 31.640625 42.046875 
Q 28.421875 43.953125 25.203125 43.953125 
Q 22.3125 43.953125 20.015625 42.21875 
Q 17.71875 40.484375 16.75 37.40625 
Q 15.28125 32.71875 15.28125 27.15625 
L 15.28125 0 
z
" id="ArialMT-114"/>
     <path d="M 40.4375 6.390625 
Q 35.546875 2.25 31.03125 0.53125 
Q 26.515625 -1.171875 21.34375 -1.171875 
Q 12.796875 -1.171875 8.203125 3 
Q 3.609375 7.171875 3.609375 13.671875 
Q 3.609375 17.484375 5.34375 20.625 
Q 7.078125 23.78125 9.890625 25.6875 
Q 12.703125 27.59375 16.21875 28.5625 
Q 18.796875 29.25 24.03125 29.890625 
Q 34.671875 31.15625 39.703125 32.90625 
Q 39.75 34.71875 39.75 35.203125 
Q 39.75 40.578125 37.25 42.78125 
Q 33.890625 45.75 27.25 45.75 
Q 21.046875 45.75 18.09375 43.578125 
Q 15.140625 41.40625 13.71875 35.890625 
L 5.125 37.0625 
Q 6.296875 42.578125 8.984375 45.96875 
Q 11.671875 49.359375 16.75 51.1875 
Q 21.828125 53.03125 28.515625 53.03125 
Q 35.15625 53.03125 39.296875 51.46875 
Q 43.453125 49.90625 45.40625 47.53125 
Q 47.359375 45.171875 48.140625 41.546875 
Q 48.578125 39.3125 48.578125 33.453125 
L 48.578125 21.734375 
Q 48.578125 9.46875 49.140625 6.21875 
Q 49.703125 2.984375 51.375 0 
L 42.1875 0 
Q 40.828125 2.734375 40.4375 6.390625 
z
M 39.703125 26.03125 
Q 34.90625 24.078125 25.34375 22.703125 
Q 19.921875 21.921875 17.671875 20.9375 
Q 15.4375 19.96875 14.203125 18.09375 
Q 12.984375 16.21875 12.984375 13.921875 
Q 12.984375 10.40625 15.640625 8.0625 
Q 18.3125 5.71875 23.4375 5.71875 
Q 28.515625 5.71875 32.46875 7.9375 
Q 36.421875 10.15625 38.28125 14.015625 
Q 39.703125 17 39.703125 22.796875 
z
" id="ArialMT-97"/>
     <path d="M 6.640625 61.46875 
L 6.640625 71.578125 
L 15.4375 71.578125 
L 15.4375 61.46875 
z
M 6.640625 0 
L 6.640625 51.859375 
L 15.4375 51.859375 
L 15.4375 0 
z
" id="ArialMT-105"/>
     <path d="M 6.78125 -19.875 
L 6.78125 71.578125 
L 26.171875 71.578125 
L 26.171875 64.3125 
L 15.578125 64.3125 
L 15.578125 -12.59375 
L 26.171875 -12.59375 
L 26.171875 -19.875 
z
" id="ArialMT-91"/>
     <path d="M 5.8125 54.390625 
Q 5.8125 62.0625 9.671875 67.421875 
Q 13.53125 72.796875 20.84375 72.796875 
Q 27.59375 72.796875 32 67.984375 
Q 36.421875 63.1875 36.421875 53.859375 
Q 36.421875 44.78125 31.953125 39.875 
Q 27.484375 34.96875 20.953125 34.96875 
Q 14.453125 34.96875 10.125 39.796875 
Q 5.8125 44.625 5.8125 54.390625 
z
M 21.09375 66.75 
Q 17.828125 66.75 15.65625 63.90625 
Q 13.484375 61.078125 13.484375 53.515625 
Q 13.484375 46.625 15.671875 43.8125 
Q 17.875 41.015625 21.09375 41.015625 
Q 24.421875 41.015625 26.59375 43.84375 
Q 28.765625 46.6875 28.765625 54.203125 
Q 28.765625 61.140625 26.5625 63.9375 
Q 24.359375 66.75 21.09375 66.75 
z
M 21.140625 -2.640625 
L 60.296875 72.796875 
L 67.4375 72.796875 
L 28.421875 -2.640625 
z
M 52.09375 16.796875 
Q 52.09375 24.515625 55.953125 29.859375 
Q 59.8125 35.203125 67.1875 35.203125 
Q 73.921875 35.203125 78.34375 30.390625 
Q 82.765625 25.59375 82.765625 16.265625 
Q 82.765625 7.171875 78.296875 2.265625 
Q 73.828125 -2.640625 67.234375 -2.640625 
Q 60.75 -2.640625 56.421875 2.21875 
Q 52.09375 7.078125 52.09375 16.796875 
z
M 67.4375 29.15625 
Q 64.109375 29.15625 61.9375 26.3125 
Q 59.765625 23.484375 59.765625 15.921875 
Q 59.765625 9.078125 61.953125 6.25 
Q 64.15625 3.421875 67.390625 3.421875 
Q 70.75 3.421875 72.921875 6.25 
Q 75.09375 9.078125 75.09375 16.609375 
Q 75.09375 23.53125 72.890625 26.34375 
Q 70.703125 29.15625 67.4375 29.15625 
z
" id="ArialMT-37"/>
     <path d="M 21.296875 -19.875 
L 1.90625 -19.875 
L 1.90625 -12.59375 
L 12.5 -12.59375 
L 12.5 64.3125 
L 1.90625 64.3125 
L 1.90625 71.578125 
L 21.296875 71.578125 
z
" id="ArialMT-93"/>
    </defs>
    <use transform="translate(0 0.140625)" xlink:href="#ArialMT-79"/>
    <use transform="translate(78.740234 -16.265625)scale(0.7)" xlink:href="#DejaVuSans-50"/>
    <use transform="translate(126.010742 0.140625)" xlink:href="#ArialMT-32"/>
    <use transform="translate(153.793945 0.140625)" xlink:href="#ArialMT-99"/>
    <use transform="translate(203.793945 0.140625)" xlink:href="#ArialMT-111"/>
    <use transform="translate(259.40918 0.140625)" xlink:href="#ArialMT-110"/>
    <use transform="translate(315.024414 0.140625)" xlink:href="#ArialMT-99"/>
    <use transform="translate(365.024414 0.140625)" xlink:href="#ArialMT-101"/>
    <use transform="translate(420.639648 0.140625)" xlink:href="#ArialMT-110"/>
    <use transform="translate(476.254883 0.140625)" xlink:href="#ArialMT-116"/>
    <use transform="translate(504.038086 0.140625)" xlink:href="#ArialMT-114"/>
    <use transform="translate(537.338867 0.140625)" xlink:href="#ArialMT-97"/>
    <use transform="translate(592.954102 0.140625)" xlink:href="#ArialMT-116"/>
    <use transform="translate(620.737305 0.140625)" xlink:href="#ArialMT-105"/>
    <use transform="translate(642.954102 0.140625)" xlink:href="#ArialMT-111"/>
    <use transform="translate(698.569336 0.140625)" xlink:href="#ArialMT-110"/>
    <use transform="translate(754.18457 0.140625)" xlink:href="#ArialMT-32"/>
    <use transform="translate(781.967773 0.140625)" xlink:href="#ArialMT-91"/>
    <use transform="translate(809.750977 0.140625)" xlink:href="#ArialMT-37"/>
    <use transform="translate(898.666992 0.140625)" xlink:href="#ArialMT-97"/>
    <use transform="translate(954.282227 0.140625)" xlink:href="#ArialMT-105"/>
    <use transform="translate(976.499023 0.140625)" xlink:href="#ArialMT-114"/>
    <use transform="translate(1009.799805 0.140625)" xlink:href="#ArialMT-93"/>
   </g>
  </g>
  <g id="text_16">
   <!-- Ratio $R/G$ -->
   <g style="fill:#262626;" transform="translate(12.360703 125.93)rotate(-90)scale(0.13 -0.13)">
    <defs>
     <path d="M 7.859375 0 
L 7.859375 71.578125 
L 39.59375 71.578125 
Q 49.171875 71.578125 54.140625 69.640625 
Q 59.125 67.71875 62.109375 62.828125 
Q 65.09375 57.953125 65.09375 52.046875 
Q 65.09375 44.4375 60.15625 39.203125 
Q 55.21875 33.984375 44.921875 32.5625 
Q 48.6875 30.765625 50.640625 29 
Q 54.78125 25.203125 58.5 19.484375 
L 70.953125 0 
L 59.03125 0 
L 49.5625 14.890625 
Q 45.40625 21.34375 42.71875 24.75 
Q 40.046875 28.171875 37.921875 29.53125 
Q 35.796875 30.90625 33.59375 31.453125 
Q 31.984375 31.78125 28.328125 31.78125 
L 17.328125 31.78125 
L 17.328125 0 
z
M 17.328125 39.984375 
L 37.703125 39.984375 
Q 44.1875 39.984375 47.84375 41.328125 
Q 51.515625 42.671875 53.421875 45.625 
Q 55.328125 48.578125 55.328125 52.046875 
Q 55.328125 57.125 51.640625 60.390625 
Q 47.953125 63.671875 39.984375 63.671875 
L 17.328125 63.671875 
z
" id="ArialMT-82"/>
     <path d="M 25.203125 64.796875 
L 20.21875 38.921875 
L 32.90625 38.921875 
Q 40.375 38.921875 44.984375 43.046875 
Q 49.609375 47.171875 49.609375 53.8125 
Q 49.609375 59.125 46.5 61.953125 
Q 43.40625 64.796875 37.59375 64.796875 
z
M 43.3125 35.015625 
Q 46.4375 34.28125 48.515625 31.390625 
Q 50.59375 28.515625 53.328125 19.921875 
L 59.515625 0 
L 49.125 0 
L 43.40625 18.703125 
Q 41.21875 25.921875 38.328125 28.359375 
Q 35.453125 30.8125 29.5 30.8125 
L 18.609375 30.8125 
L 12.59375 0 
L 2.6875 0 
L 16.890625 72.90625 
L 39.109375 72.90625 
Q 49.21875 72.90625 54.609375 68.328125 
Q 60.015625 63.765625 60.015625 55.171875 
Q 60.015625 47.5625 55.421875 41.984375 
Q 50.828125 36.421875 43.3125 35.015625 
z
" id="DejaVuSans-Oblique-82"/>
     <path d="M 25.390625 72.90625 
L 33.6875 72.90625 
L 8.296875 -9.28125 
L 0 -9.28125 
z
" id="DejaVuSans-47"/>
     <path d="M 54.59375 10.890625 
L 58.40625 29.984375 
L 42.1875 29.984375 
L 43.703125 38.09375 
L 69.578125 38.09375 
L 63.28125 6 
Q 56.78125 2.4375 49.109375 0.5 
Q 41.453125 -1.421875 33.6875 -1.421875 
Q 19.96875 -1.421875 12.234375 6.1875 
Q 4.5 13.8125 4.5 27.390625 
Q 4.5 38.671875 9.203125 48.84375 
Q 13.921875 59.03125 22.21875 65.828125 
Q 27.4375 70.0625 33.640625 72.140625 
Q 39.84375 74.21875 47.40625 74.21875 
Q 54.25 74.21875 60.515625 72.484375 
Q 66.796875 70.75 72.515625 67.28125 
L 70.515625 56.78125 
Q 66.109375 61.375 60.203125 63.796875 
Q 54.296875 66.21875 47.609375 66.21875 
Q 39.84375 66.21875 33.9375 63.25 
Q 28.03125 60.296875 23.390625 54.109375 
Q 19.4375 48.828125 17.15625 41.671875 
Q 14.890625 34.515625 14.890625 27.09375 
Q 14.890625 16.890625 20.109375 11.734375 
Q 25.34375 6.59375 35.6875 6.59375 
Q 40.875 6.59375 45.703125 7.6875 
Q 50.53125 8.796875 54.59375 10.890625 
z
" id="DejaVuSans-Oblique-71"/>
    </defs>
    <use transform="translate(0 0.78125)" xlink:href="#ArialMT-82"/>
    <use transform="translate(72.216797 0.78125)" xlink:href="#ArialMT-97"/>
    <use transform="translate(127.832031 0.78125)" xlink:href="#ArialMT-116"/>
    <use transform="translate(155.615234 0.78125)" xlink:href="#ArialMT-105"/>
    <use transform="translate(177.832031 0.78125)" xlink:href="#ArialMT-111"/>
    <use transform="translate(233.447266 0.78125)" xlink:href="#ArialMT-32"/>
    <use transform="translate(261.230469 0.78125)" xlink:href="#DejaVuSans-Oblique-82"/>
    <use transform="translate(330.712891 0.78125)" xlink:href="#DejaVuSans-47"/>
    <use transform="translate(364.404297 0.78125)" xlink:href="#DejaVuSans-Oblique-71"/>
   </g>
  </g>
 </g>
 <defs>
  <clipPath id="p6121729190">
   <rect height="151.2" width="306" x="36" y="21.6"/>
  </clipPath>
 </defs>
</svg>
